G04 #@! TF.GenerationSoftware,KiCad,Pcbnew,(7.0.0)*
G04 #@! TF.CreationDate,2023-03-15T02:55:48+08:00*
G04 #@! TF.ProjectId,USB_C_Breakout_GH1.25_4Pin,5553425f-435f-4427-9265-616b6f75745f,rev?*
G04 #@! TF.SameCoordinates,Original*
G04 #@! TF.FileFunction,Copper,L1,Top*
G04 #@! TF.FilePolarity,Positive*
%FSLAX46Y46*%
G04 Gerber Fmt 4.6, Leading zero omitted, Abs format (unit mm)*
G04 Created by KiCad (PCBNEW (7.0.0)) date 2023-03-15 02:55:48*
%MOMM*%
%LPD*%
G01*
G04 APERTURE LIST*
G04 Aperture macros list*
%AMRoundRect*
0 Rectangle with rounded corners*
0 $1 Rounding radius*
0 $2 $3 $4 $5 $6 $7 $8 $9 X,Y pos of 4 corners*
0 Add a 4 corners polygon primitive as box body*
4,1,4,$2,$3,$4,$5,$6,$7,$8,$9,$2,$3,0*
0 Add four circle primitives for the rounded corners*
1,1,$1+$1,$2,$3*
1,1,$1+$1,$4,$5*
1,1,$1+$1,$6,$7*
1,1,$1+$1,$8,$9*
0 Add four rect primitives between the rounded corners*
20,1,$1+$1,$2,$3,$4,$5,0*
20,1,$1+$1,$4,$5,$6,$7,0*
20,1,$1+$1,$6,$7,$8,$9,0*
20,1,$1+$1,$8,$9,$2,$3,0*%
G04 Aperture macros list end*
G04 #@! TA.AperFunction,SMDPad,CuDef*
%ADD10RoundRect,0.200000X-0.200000X-0.275000X0.200000X-0.275000X0.200000X0.275000X-0.200000X0.275000X0*%
G04 #@! TD*
G04 #@! TA.AperFunction,SMDPad,CuDef*
%ADD11RoundRect,0.150000X-0.700000X0.150000X-0.700000X-0.150000X0.700000X-0.150000X0.700000X0.150000X0*%
G04 #@! TD*
G04 #@! TA.AperFunction,SMDPad,CuDef*
%ADD12RoundRect,0.250000X-1.100000X0.250000X-1.100000X-0.250000X1.100000X-0.250000X1.100000X0.250000X0*%
G04 #@! TD*
G04 #@! TA.AperFunction,SMDPad,CuDef*
%ADD13R,1.450000X0.600000*%
G04 #@! TD*
G04 #@! TA.AperFunction,SMDPad,CuDef*
%ADD14R,1.450000X0.300000*%
G04 #@! TD*
G04 #@! TA.AperFunction,ComponentPad*
%ADD15O,1.600000X1.000000*%
G04 #@! TD*
G04 #@! TA.AperFunction,ComponentPad*
%ADD16O,2.100000X1.000000*%
G04 #@! TD*
G04 #@! TA.AperFunction,SMDPad,CuDef*
%ADD17RoundRect,0.250000X-0.375000X-1.075000X0.375000X-1.075000X0.375000X1.075000X-0.375000X1.075000X0*%
G04 #@! TD*
G04 #@! TA.AperFunction,SMDPad,CuDef*
%ADD18RoundRect,0.225000X-0.225000X-0.250000X0.225000X-0.250000X0.225000X0.250000X-0.225000X0.250000X0*%
G04 #@! TD*
G04 #@! TA.AperFunction,ViaPad*
%ADD19C,0.800000*%
G04 #@! TD*
G04 #@! TA.AperFunction,Conductor*
%ADD20C,0.250000*%
G04 #@! TD*
G04 APERTURE END LIST*
D10*
X127953000Y-82296000D03*
X129603000Y-82296000D03*
X124905000Y-70104000D03*
X126555000Y-70104000D03*
X127953000Y-70104000D03*
X129603000Y-70104000D03*
D11*
X117420000Y-74325000D03*
X117420000Y-75575000D03*
X117420000Y-76825000D03*
X117420000Y-78075000D03*
D12*
X114220000Y-79925000D03*
X114220000Y-72475000D03*
D13*
X125494999Y-79449999D03*
X125494999Y-78649999D03*
D14*
X125494999Y-77449999D03*
X125494999Y-76449999D03*
X125494999Y-75949999D03*
X125494999Y-74949999D03*
D13*
X125494999Y-73749999D03*
X125494999Y-72949999D03*
X125494999Y-72949999D03*
X125494999Y-73749999D03*
D14*
X125494999Y-74449999D03*
X125494999Y-75449999D03*
X125494999Y-76949999D03*
X125494999Y-77949999D03*
D13*
X125494999Y-78649999D03*
X125494999Y-79449999D03*
D15*
X130589999Y-80519999D03*
D16*
X126409999Y-80519999D03*
X126409999Y-71879999D03*
D15*
X130589999Y-71879999D03*
D17*
X120139000Y-78486000D03*
X122939000Y-78486000D03*
D18*
X124955000Y-82296000D03*
X126505000Y-82296000D03*
D19*
X115570000Y-78740000D03*
X115570000Y-73660000D03*
X115570000Y-74930000D03*
X115570000Y-77470000D03*
X115570000Y-76200000D03*
X118110000Y-73279174D03*
X121920000Y-75221500D03*
X123190000Y-73660000D03*
X122301000Y-80772000D03*
X123317000Y-80772000D03*
X124333000Y-80772000D03*
X124333000Y-79756000D03*
X118872000Y-76835000D03*
X118872000Y-75565000D03*
X126819502Y-76454000D03*
X124079000Y-75946000D03*
D20*
X130590000Y-81309000D02*
X129603000Y-82296000D01*
X130590000Y-80520000D02*
X130590000Y-81309000D01*
X126505000Y-80615000D02*
X126410000Y-80520000D01*
X126505000Y-82296000D02*
X126505000Y-80615000D01*
X126789949Y-74450000D02*
X125495000Y-74450000D01*
X127785000Y-71334000D02*
X127785000Y-73454949D01*
X127785000Y-73454949D02*
X126789949Y-74450000D01*
X126555000Y-70104000D02*
X127785000Y-71334000D01*
X126848807Y-77450000D02*
X125495000Y-77450000D01*
X129465000Y-70242000D02*
X129465000Y-74833807D01*
X129603000Y-70104000D02*
X129465000Y-70242000D01*
X129465000Y-74833807D02*
X126848807Y-77450000D01*
X117430000Y-76835000D02*
X117420000Y-76825000D01*
X118872000Y-76835000D02*
X117430000Y-76835000D01*
X118872000Y-75565000D02*
X117430000Y-75565000D01*
X117430000Y-75565000D02*
X117420000Y-75575000D01*
X126819502Y-76454000D02*
X126819502Y-76634498D01*
X126819502Y-76634498D02*
X126504000Y-76950000D01*
X126504000Y-76950000D02*
X125495000Y-76950000D01*
X126520000Y-75950000D02*
X126819502Y-76249502D01*
X125495000Y-75950000D02*
X126520000Y-75950000D01*
X124583000Y-76450000D02*
X124079000Y-75946000D01*
X125495000Y-76450000D02*
X124583000Y-76450000D01*
X124575000Y-75450000D02*
X124079000Y-75946000D01*
X125495000Y-75450000D02*
X124575000Y-75450000D01*
G04 #@! TA.AperFunction,Conductor*
G36*
X124564258Y-73415439D02*
G01*
X124588642Y-73431732D01*
X124589399Y-73430601D01*
X124672260Y-73485966D01*
X124745326Y-73500500D01*
X124751421Y-73500500D01*
X126241000Y-73500500D01*
X126303000Y-73517113D01*
X126348387Y-73562500D01*
X126365000Y-73624500D01*
X126365000Y-73922310D01*
X126346847Y-73986904D01*
X126297703Y-74032586D01*
X126231956Y-74045979D01*
X126229952Y-74045833D01*
X126220098Y-74045112D01*
X126220081Y-74045111D01*
X126217257Y-74044905D01*
X126212974Y-74044987D01*
X126210150Y-74045303D01*
X126210135Y-74045304D01*
X126184569Y-74048165D01*
X126179516Y-74048731D01*
X126165728Y-74049500D01*
X124745326Y-74049500D01*
X124739351Y-74050688D01*
X124739346Y-74050689D01*
X124684240Y-74061650D01*
X124684235Y-74061651D01*
X124672260Y-74064034D01*
X124662105Y-74070819D01*
X124662103Y-74070820D01*
X124599551Y-74112615D01*
X124599548Y-74112617D01*
X124589399Y-74119399D01*
X124582617Y-74129548D01*
X124582615Y-74129551D01*
X124540820Y-74192103D01*
X124540819Y-74192105D01*
X124534034Y-74202260D01*
X124531651Y-74214235D01*
X124531650Y-74214240D01*
X124520689Y-74269346D01*
X124520688Y-74269351D01*
X124519500Y-74275326D01*
X124519500Y-74624674D01*
X124520688Y-74630647D01*
X124520689Y-74630655D01*
X124529671Y-74675808D01*
X124529672Y-74724189D01*
X124520688Y-74769351D01*
X124520687Y-74769356D01*
X124519500Y-74775326D01*
X124519500Y-74781421D01*
X124519500Y-74979806D01*
X124509057Y-75029614D01*
X124479486Y-75071033D01*
X124450504Y-75088303D01*
X124451388Y-75089936D01*
X124405369Y-75114838D01*
X124400821Y-75117179D01*
X124363017Y-75135662D01*
X124363015Y-75135663D01*
X124353789Y-75140174D01*
X124348165Y-75145797D01*
X124341174Y-75149581D01*
X124334220Y-75157134D01*
X124326115Y-75163444D01*
X124324449Y-75161303D01*
X124287494Y-75185278D01*
X123860321Y-75328948D01*
X123860312Y-75328951D01*
X123856321Y-75330294D01*
X123853832Y-75331530D01*
X123846635Y-75333304D01*
X123839999Y-75336786D01*
X123839996Y-75336788D01*
X123713406Y-75403228D01*
X123713400Y-75403231D01*
X123706760Y-75406717D01*
X123701148Y-75411687D01*
X123701143Y-75411692D01*
X123594127Y-75506499D01*
X123594122Y-75506503D01*
X123588517Y-75511470D01*
X123584262Y-75517634D01*
X123584257Y-75517640D01*
X123503043Y-75635300D01*
X123503040Y-75635303D01*
X123498780Y-75641477D01*
X123496120Y-75648488D01*
X123496118Y-75648494D01*
X123453533Y-75760783D01*
X123442763Y-75789182D01*
X123441859Y-75796622D01*
X123441858Y-75796629D01*
X123432707Y-75872000D01*
X123423722Y-75946000D01*
X123424626Y-75953445D01*
X123441858Y-76095370D01*
X123441859Y-76095375D01*
X123442763Y-76102818D01*
X123498780Y-76250523D01*
X123588517Y-76380530D01*
X123706760Y-76485283D01*
X123846635Y-76558696D01*
X123851616Y-76559923D01*
X123853501Y-76560883D01*
X124172583Y-76672107D01*
X124304327Y-76718030D01*
X124339180Y-76737940D01*
X124339481Y-76737519D01*
X124340071Y-76737940D01*
X124343657Y-76740500D01*
X124343658Y-76740501D01*
X124356395Y-76749595D01*
X124360499Y-76752655D01*
X124401811Y-76784809D01*
X124409331Y-76787390D01*
X124415801Y-76792010D01*
X124430883Y-76796500D01*
X124476938Y-76821836D01*
X124508359Y-76863975D01*
X124519500Y-76915345D01*
X124519500Y-77124674D01*
X124520688Y-77130647D01*
X124520689Y-77130655D01*
X124529671Y-77175808D01*
X124529672Y-77224189D01*
X124520688Y-77269351D01*
X124520687Y-77269356D01*
X124519500Y-77275326D01*
X124519500Y-77624674D01*
X124520688Y-77630647D01*
X124520689Y-77630655D01*
X124529671Y-77675809D01*
X124529671Y-77724191D01*
X124520689Y-77769344D01*
X124520688Y-77769353D01*
X124519500Y-77775326D01*
X124519500Y-78124674D01*
X124520688Y-78130649D01*
X124520689Y-78130653D01*
X124531650Y-78185759D01*
X124531651Y-78185762D01*
X124534034Y-78197740D01*
X124589399Y-78280601D01*
X124672260Y-78335966D01*
X124745326Y-78350500D01*
X124751421Y-78350500D01*
X126241000Y-78350500D01*
X126303000Y-78367113D01*
X126348387Y-78412500D01*
X126365000Y-78474500D01*
X126365000Y-78775500D01*
X126348387Y-78837500D01*
X126303000Y-78882887D01*
X126241000Y-78899500D01*
X124745326Y-78899500D01*
X124739351Y-78900688D01*
X124739346Y-78900689D01*
X124684240Y-78911650D01*
X124684235Y-78911651D01*
X124672260Y-78914034D01*
X124662105Y-78920819D01*
X124662103Y-78920820D01*
X124599551Y-78962615D01*
X124599548Y-78962617D01*
X124589399Y-78969399D01*
X124582617Y-78979548D01*
X124582615Y-78979551D01*
X124534034Y-79052260D01*
X124531733Y-79050722D01*
X124514767Y-79074987D01*
X124468797Y-79101801D01*
X124417078Y-79106755D01*
X124411985Y-79105500D01*
X124254015Y-79105500D01*
X124246740Y-79107292D01*
X124246732Y-79107294D01*
X124107915Y-79141509D01*
X124107909Y-79141510D01*
X124100635Y-79143304D01*
X124094000Y-79146786D01*
X124093993Y-79146789D01*
X123967406Y-79213228D01*
X123967400Y-79213231D01*
X123960760Y-79216717D01*
X123955148Y-79221687D01*
X123955143Y-79221692D01*
X123848128Y-79316498D01*
X123848123Y-79316503D01*
X123842517Y-79321470D01*
X123838257Y-79327640D01*
X123833311Y-79333225D01*
X123791386Y-79364075D01*
X123740494Y-79375000D01*
X122425000Y-79375000D01*
X122363000Y-79358387D01*
X122317613Y-79313000D01*
X122301000Y-79251000D01*
X122301000Y-75808831D01*
X122311925Y-75757939D01*
X122342773Y-75716015D01*
X122347287Y-75712016D01*
X122410483Y-75656030D01*
X122500220Y-75526023D01*
X122556237Y-75378318D01*
X122575278Y-75221500D01*
X122562548Y-75116660D01*
X122568427Y-75061267D01*
X122597959Y-75014040D01*
X123287695Y-74324304D01*
X123345695Y-74291592D01*
X123422365Y-74272696D01*
X123562240Y-74199283D01*
X123680483Y-74094530D01*
X123770220Y-73964523D01*
X123826237Y-73816818D01*
X123827051Y-73810113D01*
X123859598Y-73752401D01*
X124169684Y-73442315D01*
X124209909Y-73415439D01*
X124257362Y-73406000D01*
X124516805Y-73406000D01*
X124564258Y-73415439D01*
G37*
G04 #@! TD.AperFunction*
G04 #@! TA.AperFunction,Conductor*
G36*
X120842000Y-77105613D02*
G01*
X120887387Y-77151000D01*
X120904000Y-77213000D01*
X120904000Y-79759000D01*
X120887387Y-79821000D01*
X120842000Y-79866387D01*
X120780000Y-79883000D01*
X117008333Y-79883000D01*
X116969121Y-79876637D01*
X116933933Y-79858200D01*
X116801666Y-79759000D01*
X116508599Y-79539199D01*
X116472091Y-79495454D01*
X116459000Y-79440000D01*
X116459000Y-77648362D01*
X116468439Y-77600910D01*
X116495315Y-77560684D01*
X116644188Y-77411811D01*
X116684408Y-77384938D01*
X116731856Y-77375499D01*
X118151518Y-77375499D01*
X118245304Y-77360646D01*
X118254006Y-77356211D01*
X118263281Y-77353198D01*
X118263306Y-77353276D01*
X118269310Y-77350904D01*
X118274687Y-77349878D01*
X118282413Y-77346855D01*
X118284974Y-77346364D01*
X118285503Y-77346212D01*
X118285516Y-77346260D01*
X118326878Y-77338332D01*
X118371441Y-77346340D01*
X118617999Y-77439545D01*
X118621225Y-77440096D01*
X118627620Y-77442172D01*
X118632990Y-77444208D01*
X118639635Y-77447696D01*
X118793015Y-77485500D01*
X118943485Y-77485500D01*
X118950985Y-77485500D01*
X119104365Y-77447696D01*
X119244240Y-77374283D01*
X119362483Y-77269530D01*
X119450123Y-77142560D01*
X119494548Y-77103203D01*
X119552174Y-77089000D01*
X120780000Y-77089000D01*
X120842000Y-77105613D01*
G37*
G04 #@! TD.AperFunction*
G04 #@! TA.AperFunction,Conductor*
G36*
X129543471Y-68580694D02*
G01*
X129655527Y-68586987D01*
X129824353Y-68597199D01*
X129837591Y-68598720D01*
X129969665Y-68621160D01*
X129971007Y-68621397D01*
X130116210Y-68648007D01*
X130128153Y-68650814D01*
X130260788Y-68689025D01*
X130263279Y-68689773D01*
X130400146Y-68732423D01*
X130410682Y-68736237D01*
X130539736Y-68789693D01*
X130543063Y-68791130D01*
X130672306Y-68849298D01*
X130681372Y-68853834D01*
X130804331Y-68921791D01*
X130808500Y-68924202D01*
X130928988Y-68997040D01*
X130936592Y-69002027D01*
X131051525Y-69083575D01*
X131056223Y-69087078D01*
X131166752Y-69173672D01*
X131172906Y-69178823D01*
X131278133Y-69272859D01*
X131283187Y-69277638D01*
X131382360Y-69376811D01*
X131387139Y-69381865D01*
X131481175Y-69487092D01*
X131486326Y-69493246D01*
X131572904Y-69603754D01*
X131576423Y-69608473D01*
X131657971Y-69723406D01*
X131662958Y-69731010D01*
X131735796Y-69851498D01*
X131738207Y-69855667D01*
X131806164Y-69978626D01*
X131810712Y-69987716D01*
X131868832Y-70116853D01*
X131870317Y-70120291D01*
X131923756Y-70249303D01*
X131927580Y-70259866D01*
X131970214Y-70396684D01*
X131970983Y-70399246D01*
X132009180Y-70531831D01*
X132011995Y-70543807D01*
X132038578Y-70688865D01*
X132038857Y-70690446D01*
X132061275Y-70822385D01*
X132062801Y-70835670D01*
X132072997Y-71004242D01*
X132073028Y-71004774D01*
X132079305Y-71116527D01*
X132079500Y-71123481D01*
X132079500Y-81276519D01*
X132079305Y-81283473D01*
X132073028Y-81395224D01*
X132072997Y-81395756D01*
X132062801Y-81564328D01*
X132061275Y-81577613D01*
X132038857Y-81709552D01*
X132038578Y-81711133D01*
X132011995Y-81856191D01*
X132009180Y-81868167D01*
X131970983Y-82000752D01*
X131970214Y-82003314D01*
X131927580Y-82140132D01*
X131923756Y-82150695D01*
X131870317Y-82279707D01*
X131868832Y-82283145D01*
X131810712Y-82412282D01*
X131806164Y-82421372D01*
X131738207Y-82544331D01*
X131735796Y-82548500D01*
X131662958Y-82668988D01*
X131657971Y-82676592D01*
X131576423Y-82791525D01*
X131572904Y-82796244D01*
X131486326Y-82906752D01*
X131481175Y-82912906D01*
X131387139Y-83018133D01*
X131382360Y-83023187D01*
X131283187Y-83122360D01*
X131278133Y-83127139D01*
X131172906Y-83221175D01*
X131166752Y-83226326D01*
X131056244Y-83312904D01*
X131051525Y-83316423D01*
X130936592Y-83397971D01*
X130928988Y-83402958D01*
X130808500Y-83475796D01*
X130804331Y-83478207D01*
X130681372Y-83546164D01*
X130672282Y-83550712D01*
X130543145Y-83608832D01*
X130539707Y-83610317D01*
X130410695Y-83663756D01*
X130400132Y-83667580D01*
X130263314Y-83710214D01*
X130260752Y-83710983D01*
X130128167Y-83749180D01*
X130116191Y-83751995D01*
X129971133Y-83778578D01*
X129969552Y-83778857D01*
X129837613Y-83801275D01*
X129824328Y-83802801D01*
X129655756Y-83812997D01*
X129655224Y-83813028D01*
X129547513Y-83819078D01*
X129543471Y-83819305D01*
X129536519Y-83819500D01*
X114303481Y-83819500D01*
X114296528Y-83819305D01*
X114292045Y-83819053D01*
X114184774Y-83813028D01*
X114184242Y-83812997D01*
X114015670Y-83802801D01*
X114002385Y-83801275D01*
X113870446Y-83778857D01*
X113868865Y-83778578D01*
X113723807Y-83751995D01*
X113711831Y-83749180D01*
X113579246Y-83710983D01*
X113576684Y-83710214D01*
X113439866Y-83667580D01*
X113429303Y-83663756D01*
X113300291Y-83610317D01*
X113296873Y-83608841D01*
X113167713Y-83550710D01*
X113158626Y-83546164D01*
X113035667Y-83478207D01*
X113031498Y-83475796D01*
X112911010Y-83402958D01*
X112903406Y-83397971D01*
X112788473Y-83316423D01*
X112783754Y-83312904D01*
X112673246Y-83226326D01*
X112667092Y-83221175D01*
X112561865Y-83127139D01*
X112556811Y-83122360D01*
X112457638Y-83023187D01*
X112452859Y-83018133D01*
X112358823Y-82912906D01*
X112353672Y-82906752D01*
X112331606Y-82878587D01*
X112267078Y-82796223D01*
X112263575Y-82791525D01*
X112182027Y-82676592D01*
X112177040Y-82668988D01*
X112104202Y-82548500D01*
X112101791Y-82544331D01*
X112083272Y-82510824D01*
X112033832Y-82421369D01*
X112029298Y-82412306D01*
X111971130Y-82283063D01*
X111969693Y-82279736D01*
X111916237Y-82150682D01*
X111912423Y-82140146D01*
X111869773Y-82003279D01*
X111869015Y-82000752D01*
X111868947Y-82000515D01*
X111830814Y-81868153D01*
X111828007Y-81856210D01*
X111801397Y-81711007D01*
X111801160Y-81709665D01*
X111778720Y-81577591D01*
X111777199Y-81564353D01*
X111766983Y-81395453D01*
X111760694Y-81283471D01*
X111760500Y-81276521D01*
X111760500Y-79440000D01*
X116203500Y-79440000D01*
X116203914Y-79443557D01*
X116203915Y-79443571D01*
X116209918Y-79495128D01*
X116209920Y-79495142D01*
X116210335Y-79498702D01*
X116211160Y-79502197D01*
X116211161Y-79502202D01*
X116220310Y-79540959D01*
X116223426Y-79554156D01*
X116224647Y-79557525D01*
X116224649Y-79557531D01*
X116241112Y-79602950D01*
X116241113Y-79602953D01*
X116243565Y-79609716D01*
X116247504Y-79615735D01*
X116247505Y-79615736D01*
X116273961Y-79656158D01*
X116273965Y-79656164D01*
X116275929Y-79659164D01*
X116278224Y-79661914D01*
X116278230Y-79661922D01*
X116310134Y-79700150D01*
X116312437Y-79702909D01*
X116355299Y-79743599D01*
X116780633Y-80062600D01*
X116815353Y-80084516D01*
X116850541Y-80102953D01*
X116928196Y-80128838D01*
X116967408Y-80135201D01*
X117008333Y-80138500D01*
X120775947Y-80138500D01*
X120780000Y-80138500D01*
X120846129Y-80129794D01*
X120908129Y-80113181D01*
X120969750Y-80087656D01*
X121022666Y-80047053D01*
X121068053Y-80001666D01*
X121108656Y-79948750D01*
X121134181Y-79887129D01*
X121150794Y-79825129D01*
X121159500Y-79759000D01*
X121159500Y-79251000D01*
X122045500Y-79251000D01*
X122054206Y-79317129D01*
X122055255Y-79321047D01*
X122055258Y-79321058D01*
X122059275Y-79336048D01*
X122063500Y-79368139D01*
X122063500Y-79605560D01*
X122063500Y-79605578D01*
X122063501Y-79608872D01*
X122063853Y-79612150D01*
X122063854Y-79612161D01*
X122069079Y-79660768D01*
X122069080Y-79660773D01*
X122069909Y-79668483D01*
X122072619Y-79675749D01*
X122072620Y-79675753D01*
X122097002Y-79741124D01*
X122120204Y-79803331D01*
X122206454Y-79918546D01*
X122321669Y-80004796D01*
X122456517Y-80055091D01*
X122516127Y-80061500D01*
X123361872Y-80061499D01*
X123421483Y-80055091D01*
X123556331Y-80004796D01*
X123671546Y-79918546D01*
X123757796Y-79803331D01*
X123805303Y-79675955D01*
X123835567Y-79629880D01*
X123882812Y-79601475D01*
X123896249Y-79597064D01*
X123942814Y-79569865D01*
X123984739Y-79539015D01*
X124024587Y-79502617D01*
X124026765Y-79500156D01*
X124028217Y-79498683D01*
X124034344Y-79492870D01*
X124095702Y-79438511D01*
X124120288Y-79421540D01*
X124178574Y-79390948D01*
X124206520Y-79380351D01*
X124270419Y-79364602D01*
X124300092Y-79361000D01*
X124411985Y-79361000D01*
X124411985Y-79361307D01*
X124426117Y-79359969D01*
X124441440Y-79361091D01*
X124493159Y-79356137D01*
X124547170Y-79344984D01*
X124597529Y-79322500D01*
X124643499Y-79295686D01*
X124687862Y-79262918D01*
X124705370Y-79242888D01*
X124747463Y-79211594D01*
X124798728Y-79200500D01*
X126238579Y-79200500D01*
X126244674Y-79200500D01*
X126254044Y-79198636D01*
X126256640Y-79198720D01*
X126256710Y-79198714D01*
X126256710Y-79198723D01*
X126310330Y-79200476D01*
X126359997Y-79227023D01*
X126392801Y-79272799D01*
X126429462Y-79361307D01*
X126437302Y-79380233D01*
X126442245Y-79386674D01*
X126442248Y-79386680D01*
X126482024Y-79438516D01*
X126529549Y-79500451D01*
X126535991Y-79505394D01*
X126590374Y-79547124D01*
X126628167Y-79595065D01*
X126638505Y-79655229D01*
X126618882Y-79713035D01*
X126574055Y-79754473D01*
X126514887Y-79769500D01*
X125816291Y-79769500D01*
X125812725Y-79769916D01*
X125812721Y-79769917D01*
X125692915Y-79783920D01*
X125692907Y-79783921D01*
X125685745Y-79784759D01*
X125678967Y-79787225D01*
X125678958Y-79787228D01*
X125527674Y-79842291D01*
X125527671Y-79842292D01*
X125520883Y-79844763D01*
X125514850Y-79848730D01*
X125514842Y-79848735D01*
X125380340Y-79937199D01*
X125380334Y-79937203D01*
X125374304Y-79941170D01*
X125369351Y-79946419D01*
X125369346Y-79946424D01*
X125258865Y-80063527D01*
X125258861Y-80063531D01*
X125253908Y-80068782D01*
X125250299Y-80075032D01*
X125250296Y-80075037D01*
X125169799Y-80214463D01*
X125169796Y-80214468D01*
X125166188Y-80220719D01*
X125164117Y-80227634D01*
X125164117Y-80227636D01*
X125117941Y-80381869D01*
X125117939Y-80381877D01*
X125115870Y-80388790D01*
X125115450Y-80395996D01*
X125115449Y-80396004D01*
X125106088Y-80556725D01*
X125106088Y-80556733D01*
X125105669Y-80563935D01*
X125136135Y-80736711D01*
X125205623Y-80897804D01*
X125310390Y-81038530D01*
X125444786Y-81151302D01*
X125601567Y-81230040D01*
X125772279Y-81270500D01*
X125779500Y-81270500D01*
X125786677Y-81271339D01*
X125786491Y-81272924D01*
X125827545Y-81281961D01*
X125869987Y-81314225D01*
X125971504Y-81433743D01*
X125995128Y-81476326D01*
X126000532Y-81524722D01*
X125986884Y-81571468D01*
X125861057Y-81812147D01*
X125861056Y-81812149D01*
X125860993Y-81812271D01*
X125858372Y-81815774D01*
X125856403Y-81821052D01*
X125854688Y-81824331D01*
X125854687Y-81824333D01*
X125852723Y-81828091D01*
X125850225Y-81832870D01*
X125848594Y-81837997D01*
X125848591Y-81838007D01*
X125840933Y-81862096D01*
X125838944Y-81867856D01*
X125813298Y-81936617D01*
X125813295Y-81936625D01*
X125810588Y-81943886D01*
X125809759Y-81951589D01*
X125809759Y-81951593D01*
X125804854Y-81997224D01*
X125804500Y-82000515D01*
X125804500Y-82003824D01*
X125804500Y-82003825D01*
X125804500Y-82588172D01*
X125804500Y-82588190D01*
X125804501Y-82591484D01*
X125804853Y-82594761D01*
X125804854Y-82594775D01*
X125809759Y-82640400D01*
X125810588Y-82648114D01*
X125858372Y-82776226D01*
X125940313Y-82885687D01*
X126049774Y-82967628D01*
X126128557Y-82997013D01*
X126170617Y-83012701D01*
X126170618Y-83012701D01*
X126177886Y-83015412D01*
X126234515Y-83021500D01*
X126775484Y-83021499D01*
X126832114Y-83015412D01*
X126960226Y-82967628D01*
X127069687Y-82885687D01*
X127151628Y-82776226D01*
X127199412Y-82648114D01*
X127201868Y-82625266D01*
X128952500Y-82625266D01*
X128952769Y-82628141D01*
X128952770Y-82628149D01*
X128954649Y-82648187D01*
X128954649Y-82648191D01*
X128955354Y-82655699D01*
X128957842Y-82662811D01*
X128957844Y-82662817D01*
X128997138Y-82775113D01*
X128997139Y-82775116D01*
X129000207Y-82783882D01*
X129005722Y-82791355D01*
X129005724Y-82791358D01*
X129058858Y-82863352D01*
X129080850Y-82893150D01*
X129088327Y-82898668D01*
X129181764Y-82967628D01*
X129190118Y-82973793D01*
X129318301Y-83018646D01*
X129348734Y-83021500D01*
X129854373Y-83021500D01*
X129857266Y-83021500D01*
X129887699Y-83018646D01*
X130015882Y-82973793D01*
X130125150Y-82893150D01*
X130205793Y-82783882D01*
X130250646Y-82655699D01*
X130253500Y-82625266D01*
X130253500Y-82556836D01*
X130265207Y-82504240D01*
X130555058Y-81885446D01*
X130579661Y-81850374D01*
X130687183Y-81742853D01*
X130694250Y-81736317D01*
X130723839Y-81711007D01*
X130728261Y-81707224D01*
X130770105Y-81660223D01*
X130775005Y-81655031D01*
X130818893Y-81611143D01*
X130838748Y-81595020D01*
X130847836Y-81589084D01*
X130867271Y-81564111D01*
X130870744Y-81560208D01*
X130870573Y-81560063D01*
X130873885Y-81556152D01*
X130877520Y-81552518D01*
X130889608Y-81535585D01*
X130892647Y-81531508D01*
X130924809Y-81490189D01*
X130925319Y-81488702D01*
X130934626Y-81475433D01*
X131141703Y-81242845D01*
X131191904Y-81208780D01*
X131229117Y-81195237D01*
X131375696Y-81098830D01*
X131496092Y-80971218D01*
X131583812Y-80819281D01*
X131634130Y-80651210D01*
X131644331Y-80476065D01*
X131613865Y-80303289D01*
X131544377Y-80142196D01*
X131439610Y-80001470D01*
X131367747Y-79941170D01*
X131310745Y-79893339D01*
X131310744Y-79893338D01*
X131305214Y-79888698D01*
X131298763Y-79885458D01*
X131154883Y-79813199D01*
X131154880Y-79813198D01*
X131148433Y-79809960D01*
X131141407Y-79808294D01*
X131141405Y-79808294D01*
X130984749Y-79771165D01*
X130984743Y-79771164D01*
X130977721Y-79769500D01*
X130246291Y-79769500D01*
X130242725Y-79769916D01*
X130242721Y-79769917D01*
X130122915Y-79783920D01*
X130122907Y-79783921D01*
X130115745Y-79784759D01*
X130108967Y-79787225D01*
X130108958Y-79787228D01*
X129957674Y-79842291D01*
X129957671Y-79842292D01*
X129950883Y-79844763D01*
X129944850Y-79848730D01*
X129944842Y-79848735D01*
X129810340Y-79937199D01*
X129810334Y-79937203D01*
X129804304Y-79941170D01*
X129799351Y-79946419D01*
X129799346Y-79946424D01*
X129688865Y-80063527D01*
X129688861Y-80063531D01*
X129683908Y-80068782D01*
X129680299Y-80075032D01*
X129680296Y-80075037D01*
X129599799Y-80214463D01*
X129599796Y-80214468D01*
X129596188Y-80220719D01*
X129594117Y-80227634D01*
X129594117Y-80227636D01*
X129547941Y-80381869D01*
X129547939Y-80381877D01*
X129545870Y-80388790D01*
X129545450Y-80395996D01*
X129545449Y-80396004D01*
X129536088Y-80556725D01*
X129536088Y-80556733D01*
X129535669Y-80563935D01*
X129566135Y-80736711D01*
X129635623Y-80897804D01*
X129740390Y-81038530D01*
X129745921Y-81043171D01*
X129745923Y-81043173D01*
X129842671Y-81124355D01*
X129861886Y-81144573D01*
X129913679Y-81213094D01*
X129936538Y-81264505D01*
X129934325Y-81320726D01*
X129907495Y-81370181D01*
X129861572Y-81402689D01*
X129698577Y-81469142D01*
X129472471Y-81561324D01*
X129425660Y-81570500D01*
X129348734Y-81570500D01*
X129345859Y-81570769D01*
X129345850Y-81570770D01*
X129325812Y-81572649D01*
X129325807Y-81572650D01*
X129318301Y-81573354D01*
X129311189Y-81575842D01*
X129311182Y-81575844D01*
X129198886Y-81615138D01*
X129198880Y-81615140D01*
X129190118Y-81618207D01*
X129182646Y-81623720D01*
X129182641Y-81623724D01*
X129088327Y-81693331D01*
X129088324Y-81693333D01*
X129080850Y-81698850D01*
X129075333Y-81706324D01*
X129075331Y-81706327D01*
X129005724Y-81800641D01*
X129005720Y-81800646D01*
X129000207Y-81808118D01*
X128997140Y-81816880D01*
X128997138Y-81816886D01*
X128957844Y-81929182D01*
X128957842Y-81929189D01*
X128955354Y-81936301D01*
X128954650Y-81943807D01*
X128954649Y-81943812D01*
X128952770Y-81963850D01*
X128952500Y-81966734D01*
X128952500Y-82625266D01*
X127201868Y-82625266D01*
X127205500Y-82591485D01*
X127205499Y-82000516D01*
X127199412Y-81943886D01*
X127196701Y-81936617D01*
X127196701Y-81936616D01*
X127171059Y-81867870D01*
X127169069Y-81862105D01*
X127161408Y-81838010D01*
X127161406Y-81838005D01*
X127159773Y-81832869D01*
X127153600Y-81821062D01*
X127151628Y-81815774D01*
X127149001Y-81812265D01*
X127003462Y-81533878D01*
X126989511Y-81470151D01*
X127009839Y-81408161D01*
X127080690Y-81300744D01*
X127107356Y-81271702D01*
X127141791Y-81252498D01*
X127299117Y-81195237D01*
X127445696Y-81098830D01*
X127566092Y-80971218D01*
X127653812Y-80819281D01*
X127704130Y-80651210D01*
X127714331Y-80476065D01*
X127683865Y-80303289D01*
X127614377Y-80142196D01*
X127509610Y-80001470D01*
X127437747Y-79941170D01*
X127380745Y-79893339D01*
X127380744Y-79893338D01*
X127375214Y-79888698D01*
X127364304Y-79883219D01*
X127268251Y-79834979D01*
X127227870Y-79814699D01*
X127178941Y-79770513D01*
X127159574Y-79707494D01*
X127175246Y-79643455D01*
X127221526Y-79596500D01*
X127222724Y-79595808D01*
X127230233Y-79592698D01*
X127350451Y-79500451D01*
X127442698Y-79380233D01*
X127500687Y-79240236D01*
X127520466Y-79090000D01*
X127500687Y-78939764D01*
X127442698Y-78799767D01*
X127437753Y-78793322D01*
X127437751Y-78793319D01*
X127355394Y-78685991D01*
X127350451Y-78679549D01*
X127344008Y-78674605D01*
X127236680Y-78592248D01*
X127236674Y-78592245D01*
X127230233Y-78587302D01*
X127222724Y-78584191D01*
X127222723Y-78584191D01*
X127097745Y-78532423D01*
X127097742Y-78532422D01*
X127090236Y-78529313D01*
X127082182Y-78528252D01*
X127082176Y-78528251D01*
X126981739Y-78515029D01*
X126981737Y-78515028D01*
X126977720Y-78514500D01*
X126902280Y-78514500D01*
X126898263Y-78515028D01*
X126898260Y-78515029D01*
X126797823Y-78528251D01*
X126797815Y-78528252D01*
X126789764Y-78529313D01*
X126782257Y-78532422D01*
X126774404Y-78534527D01*
X126773996Y-78533006D01*
X126729819Y-78540295D01*
X126675935Y-78523944D01*
X126634837Y-78485448D01*
X126615003Y-78432746D01*
X126611794Y-78408371D01*
X126595181Y-78346371D01*
X126569656Y-78284750D01*
X126529053Y-78231834D01*
X126506818Y-78209599D01*
X126479939Y-78169372D01*
X126470500Y-78121919D01*
X126470500Y-77949500D01*
X126487113Y-77887500D01*
X126532500Y-77842113D01*
X126594500Y-77825500D01*
X126797002Y-77825500D01*
X126822451Y-77828140D01*
X126823016Y-77828258D01*
X126823017Y-77828258D01*
X126833075Y-77830367D01*
X126864483Y-77826451D01*
X126869694Y-77826128D01*
X126869678Y-77825924D01*
X126874793Y-77825500D01*
X126879921Y-77825500D01*
X126900443Y-77822074D01*
X126905473Y-77821342D01*
X126957433Y-77814866D01*
X126964577Y-77811373D01*
X126972417Y-77810065D01*
X127018454Y-77785150D01*
X127022971Y-77782825D01*
X127070018Y-77759826D01*
X127075641Y-77754202D01*
X127082633Y-77750419D01*
X127118124Y-77711863D01*
X127121601Y-77708241D01*
X129693889Y-75135953D01*
X129713747Y-75119828D01*
X129722836Y-75113891D01*
X129742279Y-75088909D01*
X129745746Y-75085012D01*
X129745574Y-75084867D01*
X129748881Y-75080961D01*
X129752520Y-75077324D01*
X129764597Y-75060407D01*
X129767663Y-75056296D01*
X129769717Y-75053657D01*
X129799809Y-75014996D01*
X129802390Y-75007475D01*
X129807010Y-75001006D01*
X129821941Y-74950852D01*
X129823491Y-74946008D01*
X129840500Y-74896467D01*
X129840500Y-74888516D01*
X129842769Y-74880895D01*
X129840605Y-74828600D01*
X129840500Y-74823476D01*
X129840500Y-72695118D01*
X129856222Y-72634687D01*
X129899402Y-72589580D01*
X129959089Y-72571236D01*
X130020149Y-72584306D01*
X130023174Y-72585825D01*
X130031567Y-72590040D01*
X130202279Y-72630500D01*
X130930111Y-72630500D01*
X130933709Y-72630500D01*
X131064255Y-72615241D01*
X131229117Y-72555237D01*
X131375696Y-72458830D01*
X131496092Y-72331218D01*
X131583812Y-72179281D01*
X131634130Y-72011210D01*
X131644331Y-71836065D01*
X131613865Y-71663289D01*
X131544377Y-71502196D01*
X131439610Y-71361470D01*
X131367747Y-71301170D01*
X131310745Y-71253339D01*
X131310744Y-71253338D01*
X131305214Y-71248698D01*
X131256974Y-71224471D01*
X131154883Y-71173199D01*
X131154880Y-71173198D01*
X131148433Y-71169960D01*
X131141407Y-71168294D01*
X131141405Y-71168294D01*
X130984749Y-71131165D01*
X130984743Y-71131164D01*
X130977721Y-71129500D01*
X130246291Y-71129500D01*
X130242725Y-71129916D01*
X130242721Y-71129917D01*
X130122915Y-71143920D01*
X130122907Y-71143921D01*
X130115745Y-71144759D01*
X130108965Y-71147226D01*
X130108959Y-71147228D01*
X130057045Y-71166123D01*
X129994125Y-71171892D01*
X129936530Y-71145909D01*
X129899215Y-71094920D01*
X129891869Y-71032164D01*
X129916395Y-70973940D01*
X130138694Y-70685319D01*
X130141130Y-70680741D01*
X130143938Y-70676389D01*
X130144144Y-70676522D01*
X130148910Y-70668954D01*
X130205793Y-70591882D01*
X130250646Y-70463699D01*
X130253500Y-70433266D01*
X130253500Y-69774734D01*
X130250646Y-69744301D01*
X130205793Y-69616118D01*
X130125150Y-69506850D01*
X130098379Y-69487092D01*
X130023358Y-69431724D01*
X130023355Y-69431722D01*
X130015882Y-69426207D01*
X130007116Y-69423139D01*
X130007113Y-69423138D01*
X129894817Y-69383844D01*
X129894811Y-69383842D01*
X129887699Y-69381354D01*
X129880191Y-69380649D01*
X129880187Y-69380649D01*
X129860149Y-69378770D01*
X129860141Y-69378769D01*
X129857266Y-69378500D01*
X129348734Y-69378500D01*
X129345859Y-69378769D01*
X129345850Y-69378770D01*
X129325812Y-69380649D01*
X129325807Y-69380650D01*
X129318301Y-69381354D01*
X129311189Y-69383842D01*
X129311182Y-69383844D01*
X129198886Y-69423138D01*
X129198880Y-69423140D01*
X129190118Y-69426207D01*
X129182646Y-69431720D01*
X129182641Y-69431724D01*
X129088327Y-69501331D01*
X129088324Y-69501333D01*
X129080850Y-69506850D01*
X129075333Y-69514324D01*
X129075331Y-69514327D01*
X129005724Y-69608641D01*
X129005720Y-69608646D01*
X129000207Y-69616118D01*
X128997140Y-69624880D01*
X128997138Y-69624886D01*
X128957844Y-69737182D01*
X128957842Y-69737189D01*
X128955354Y-69744301D01*
X128954650Y-69751807D01*
X128954649Y-69751812D01*
X128952770Y-69771850D01*
X128952500Y-69774734D01*
X128952500Y-70433266D01*
X128952769Y-70436141D01*
X128952770Y-70436149D01*
X128954648Y-70456180D01*
X128954649Y-70456186D01*
X128955354Y-70463699D01*
X128957845Y-70470817D01*
X128957847Y-70470825D01*
X128964383Y-70489503D01*
X128969347Y-70512045D01*
X128969860Y-70511961D01*
X128970524Y-70516013D01*
X128970918Y-70520089D01*
X128971843Y-70524068D01*
X128971846Y-70524082D01*
X129086275Y-71015958D01*
X129089500Y-71044055D01*
X129089500Y-74626908D01*
X129080061Y-74674361D01*
X129053181Y-74714589D01*
X127593444Y-76174323D01*
X127544436Y-76204457D01*
X127487103Y-76209230D01*
X127433786Y-76187614D01*
X127400215Y-76149136D01*
X127399722Y-76149477D01*
X127396725Y-76145135D01*
X127396724Y-76145134D01*
X127333164Y-76053050D01*
X127314244Y-76025640D01*
X127314243Y-76025639D01*
X127309985Y-76019470D01*
X127287477Y-75999530D01*
X127197354Y-75919688D01*
X127197350Y-75919685D01*
X127191742Y-75914717D01*
X127105634Y-75869523D01*
X127079168Y-75855632D01*
X127076420Y-75854145D01*
X127055557Y-75842509D01*
X127050905Y-75840668D01*
X126894085Y-75778612D01*
X126852030Y-75750992D01*
X126822150Y-75721112D01*
X126806022Y-75701251D01*
X126805706Y-75700768D01*
X126805703Y-75700765D01*
X126800084Y-75692164D01*
X126775109Y-75672725D01*
X126771190Y-75669264D01*
X126771058Y-75669421D01*
X126767143Y-75666105D01*
X126763518Y-75662480D01*
X126746591Y-75650395D01*
X126742481Y-75647330D01*
X126709297Y-75621502D01*
X126701189Y-75615191D01*
X126693668Y-75612609D01*
X126687199Y-75607990D01*
X126677353Y-75605058D01*
X126677350Y-75605057D01*
X126637043Y-75593056D01*
X126632167Y-75591494D01*
X126592381Y-75577836D01*
X126592374Y-75577834D01*
X126582660Y-75574500D01*
X126575973Y-75574500D01*
X126570289Y-75573185D01*
X126567091Y-75572233D01*
X126567466Y-75570969D01*
X126523848Y-75554297D01*
X126484644Y-75509905D01*
X126470500Y-75452394D01*
X126470500Y-75281421D01*
X126470500Y-75275326D01*
X126460328Y-75224189D01*
X126460328Y-75175811D01*
X126470500Y-75124674D01*
X126470500Y-74949500D01*
X126487113Y-74887500D01*
X126532500Y-74842113D01*
X126594500Y-74825500D01*
X126738144Y-74825500D01*
X126763593Y-74828140D01*
X126764158Y-74828258D01*
X126764159Y-74828258D01*
X126774217Y-74830367D01*
X126805625Y-74826451D01*
X126810836Y-74826128D01*
X126810820Y-74825924D01*
X126815935Y-74825500D01*
X126821063Y-74825500D01*
X126841585Y-74822074D01*
X126846615Y-74821342D01*
X126898575Y-74814866D01*
X126905719Y-74811373D01*
X126913559Y-74810065D01*
X126959596Y-74785150D01*
X126964113Y-74782825D01*
X127011160Y-74759826D01*
X127016783Y-74754202D01*
X127023775Y-74750419D01*
X127059266Y-74711863D01*
X127062743Y-74708241D01*
X128013889Y-73757095D01*
X128033747Y-73740970D01*
X128042836Y-73735033D01*
X128062279Y-73710051D01*
X128065746Y-73706154D01*
X128065574Y-73706009D01*
X128068881Y-73702103D01*
X128072520Y-73698466D01*
X128084597Y-73681549D01*
X128087663Y-73677438D01*
X128119809Y-73636138D01*
X128122390Y-73628617D01*
X128127010Y-73622148D01*
X128141941Y-73571994D01*
X128143491Y-73567150D01*
X128160500Y-73517609D01*
X128160500Y-73509658D01*
X128162769Y-73502037D01*
X128160605Y-73449742D01*
X128160500Y-73444618D01*
X128160500Y-71385804D01*
X128163139Y-71360358D01*
X128163141Y-71360344D01*
X128165367Y-71349732D01*
X128161451Y-71318323D01*
X128161128Y-71313113D01*
X128160924Y-71313130D01*
X128160500Y-71308018D01*
X128160500Y-71302886D01*
X128157074Y-71282362D01*
X128156341Y-71277326D01*
X128153351Y-71253339D01*
X128149866Y-71225374D01*
X128146373Y-71218229D01*
X128145065Y-71210390D01*
X128120158Y-71164366D01*
X128117837Y-71159859D01*
X128094826Y-71112789D01*
X128089202Y-71107165D01*
X128085419Y-71100174D01*
X128077858Y-71093214D01*
X128077857Y-71093212D01*
X128046917Y-71064730D01*
X128043219Y-71061182D01*
X127531666Y-70549629D01*
X127507056Y-70514547D01*
X127479719Y-70456187D01*
X127217209Y-69895763D01*
X127205500Y-69843164D01*
X127205500Y-69777627D01*
X127205500Y-69774734D01*
X127202646Y-69744301D01*
X127157793Y-69616118D01*
X127077150Y-69506850D01*
X127050379Y-69487092D01*
X126975358Y-69431724D01*
X126975355Y-69431722D01*
X126967882Y-69426207D01*
X126959116Y-69423139D01*
X126959113Y-69423138D01*
X126846817Y-69383844D01*
X126846811Y-69383842D01*
X126839699Y-69381354D01*
X126832191Y-69380649D01*
X126832187Y-69380649D01*
X126812149Y-69378770D01*
X126812141Y-69378769D01*
X126809266Y-69378500D01*
X126300734Y-69378500D01*
X126297859Y-69378769D01*
X126297850Y-69378770D01*
X126277812Y-69380649D01*
X126277807Y-69380650D01*
X126270301Y-69381354D01*
X126263189Y-69383842D01*
X126263182Y-69383844D01*
X126150886Y-69423138D01*
X126150880Y-69423140D01*
X126142118Y-69426207D01*
X126134646Y-69431720D01*
X126134641Y-69431724D01*
X126040327Y-69501331D01*
X126040324Y-69501333D01*
X126032850Y-69506850D01*
X126027333Y-69514324D01*
X126027331Y-69514327D01*
X125957724Y-69608641D01*
X125957720Y-69608646D01*
X125952207Y-69616118D01*
X125949140Y-69624880D01*
X125949138Y-69624886D01*
X125909844Y-69737182D01*
X125909842Y-69737189D01*
X125907354Y-69744301D01*
X125906650Y-69751807D01*
X125906649Y-69751812D01*
X125904770Y-69771850D01*
X125904500Y-69774734D01*
X125904500Y-70433266D01*
X125904769Y-70436141D01*
X125904770Y-70436149D01*
X125906649Y-70456187D01*
X125906649Y-70456191D01*
X125907354Y-70463699D01*
X125909842Y-70470811D01*
X125909844Y-70470817D01*
X125949138Y-70583113D01*
X125949139Y-70583116D01*
X125952207Y-70591882D01*
X125957722Y-70599355D01*
X125957724Y-70599358D01*
X125957725Y-70599359D01*
X126032850Y-70701150D01*
X126142118Y-70781793D01*
X126270301Y-70826646D01*
X126300734Y-70829500D01*
X126377664Y-70829500D01*
X126424477Y-70838676D01*
X126552023Y-70890676D01*
X126605202Y-70932168D01*
X126628795Y-70995358D01*
X126615820Y-71061548D01*
X126570118Y-71111155D01*
X126505210Y-71129500D01*
X125816291Y-71129500D01*
X125812725Y-71129916D01*
X125812721Y-71129917D01*
X125692915Y-71143920D01*
X125692907Y-71143921D01*
X125685745Y-71144759D01*
X125678967Y-71147225D01*
X125678958Y-71147228D01*
X125527674Y-71202291D01*
X125527671Y-71202292D01*
X125520883Y-71204763D01*
X125514850Y-71208730D01*
X125514842Y-71208735D01*
X125380340Y-71297199D01*
X125380334Y-71297203D01*
X125374304Y-71301170D01*
X125369351Y-71306419D01*
X125369346Y-71306424D01*
X125258865Y-71423527D01*
X125258861Y-71423531D01*
X125253908Y-71428782D01*
X125250299Y-71435032D01*
X125250296Y-71435037D01*
X125169799Y-71574463D01*
X125169796Y-71574468D01*
X125166188Y-71580719D01*
X125164117Y-71587634D01*
X125164117Y-71587636D01*
X125117941Y-71741869D01*
X125117939Y-71741877D01*
X125115870Y-71748790D01*
X125115450Y-71755996D01*
X125115449Y-71756004D01*
X125106088Y-71916725D01*
X125106088Y-71916733D01*
X125105669Y-71923935D01*
X125136135Y-72096711D01*
X125205623Y-72257804D01*
X125310390Y-72398530D01*
X125444786Y-72511302D01*
X125601567Y-72590040D01*
X125772279Y-72630500D01*
X125779500Y-72630500D01*
X126514887Y-72630500D01*
X126574055Y-72645527D01*
X126618882Y-72686965D01*
X126638505Y-72744771D01*
X126628167Y-72804935D01*
X126590374Y-72852876D01*
X126535991Y-72894605D01*
X126535987Y-72894608D01*
X126529549Y-72899549D01*
X126524608Y-72905987D01*
X126524605Y-72905991D01*
X126442248Y-73013319D01*
X126442242Y-73013328D01*
X126437302Y-73019767D01*
X126434193Y-73027272D01*
X126434191Y-73027276D01*
X126392801Y-73127200D01*
X126360000Y-73172974D01*
X126310338Y-73199521D01*
X126256710Y-73201278D01*
X126256710Y-73201286D01*
X126256656Y-73201280D01*
X126254056Y-73201366D01*
X126250653Y-73200689D01*
X126250649Y-73200688D01*
X126244674Y-73199500D01*
X124745326Y-73199500D01*
X124742797Y-73200002D01*
X124708797Y-73198331D01*
X124674539Y-73186072D01*
X124667407Y-73182260D01*
X124662034Y-73179388D01*
X124656211Y-73177621D01*
X124656205Y-73177619D01*
X124617011Y-73165729D01*
X124616994Y-73165724D01*
X124614104Y-73164848D01*
X124611133Y-73164257D01*
X124611121Y-73164254D01*
X124569635Y-73156002D01*
X124569624Y-73156000D01*
X124566651Y-73155409D01*
X124563627Y-73155111D01*
X124563626Y-73155111D01*
X124519841Y-73150799D01*
X124516805Y-73150500D01*
X124257362Y-73150500D01*
X124254326Y-73150798D01*
X124254325Y-73150799D01*
X124210540Y-73155111D01*
X124210536Y-73155111D01*
X124207516Y-73155409D01*
X124204545Y-73155999D01*
X124204531Y-73156002D01*
X124166044Y-73163658D01*
X124166041Y-73163658D01*
X124160063Y-73164848D01*
X124154437Y-73167178D01*
X124154428Y-73167181D01*
X124073596Y-73200662D01*
X124073587Y-73200666D01*
X124067966Y-73202995D01*
X124062906Y-73206375D01*
X124062900Y-73206379D01*
X124030278Y-73228175D01*
X124030265Y-73228184D01*
X124027741Y-73229871D01*
X124025396Y-73231794D01*
X124025383Y-73231805D01*
X123991364Y-73259723D01*
X123991355Y-73259731D01*
X123989018Y-73261649D01*
X123986877Y-73263789D01*
X123986867Y-73263799D01*
X123681919Y-73568747D01*
X123681912Y-73568754D01*
X123678932Y-73571735D01*
X123676381Y-73575093D01*
X123676377Y-73575099D01*
X123639605Y-73623526D01*
X123639600Y-73623532D01*
X123637049Y-73626893D01*
X123634977Y-73630566D01*
X123634973Y-73630573D01*
X123607494Y-73679298D01*
X123607490Y-73679305D01*
X123604502Y-73684605D01*
X123602602Y-73690391D01*
X123602601Y-73690395D01*
X123595400Y-73712331D01*
X123588172Y-73726532D01*
X123587340Y-73726217D01*
X123584434Y-73733878D01*
X123584431Y-73733885D01*
X123547663Y-73830836D01*
X123533770Y-73857306D01*
X123496384Y-73911468D01*
X123476562Y-73933843D01*
X123427303Y-73977482D01*
X123402702Y-73994462D01*
X123344435Y-74025043D01*
X123316487Y-74035643D01*
X123288646Y-74042505D01*
X123288627Y-74042511D01*
X123284554Y-74043515D01*
X123280648Y-74045063D01*
X123280639Y-74045067D01*
X123224106Y-74067489D01*
X123224095Y-74067494D01*
X123220180Y-74069047D01*
X123216506Y-74071119D01*
X123216500Y-74071122D01*
X123165858Y-74099684D01*
X123165851Y-74099688D01*
X123162180Y-74101759D01*
X123158830Y-74104302D01*
X123158819Y-74104310D01*
X123110385Y-74141089D01*
X123110379Y-74141093D01*
X123107029Y-74143638D01*
X123104052Y-74146614D01*
X123104045Y-74146621D01*
X122419778Y-74830888D01*
X122419769Y-74830897D01*
X122417293Y-74833374D01*
X122415119Y-74836106D01*
X122415104Y-74836123D01*
X122383517Y-74875821D01*
X122383506Y-74875836D01*
X122381327Y-74878575D01*
X122379473Y-74881539D01*
X122379463Y-74881554D01*
X122353656Y-74922824D01*
X122353647Y-74922839D01*
X122351795Y-74925802D01*
X122350284Y-74928965D01*
X122350280Y-74928973D01*
X122334727Y-74961540D01*
X122326903Y-74977922D01*
X122325376Y-74984778D01*
X122325375Y-74984784D01*
X122315118Y-75030865D01*
X122315115Y-75030882D01*
X122314354Y-75034302D01*
X122313983Y-75037789D01*
X122313981Y-75037807D01*
X122308987Y-75084867D01*
X122308475Y-75089695D01*
X122308501Y-75093211D01*
X122308501Y-75093222D01*
X122308784Y-75130648D01*
X122308911Y-75147457D01*
X122309333Y-75150932D01*
X122309334Y-75150948D01*
X122316086Y-75206554D01*
X122316086Y-75236446D01*
X122308153Y-75301778D01*
X122300999Y-75330801D01*
X122277663Y-75392334D01*
X122263771Y-75418804D01*
X122226386Y-75472965D01*
X122206565Y-75495338D01*
X122175802Y-75522592D01*
X122175790Y-75522603D01*
X122173346Y-75524769D01*
X122171145Y-75527178D01*
X122171135Y-75527189D01*
X122139200Y-75562159D01*
X122139191Y-75562169D01*
X122136980Y-75564591D01*
X122135038Y-75567230D01*
X122135030Y-75567240D01*
X122116570Y-75592329D01*
X122106132Y-75606515D01*
X122104480Y-75609343D01*
X122104471Y-75609357D01*
X122082292Y-75647330D01*
X122078935Y-75653078D01*
X122076892Y-75659300D01*
X122076888Y-75659310D01*
X122063279Y-75700768D01*
X122062116Y-75704312D01*
X122061427Y-75707518D01*
X122061427Y-75707521D01*
X122051877Y-75752005D01*
X122051874Y-75752018D01*
X122051191Y-75755204D01*
X122045500Y-75808831D01*
X122045500Y-79251000D01*
X121159500Y-79251000D01*
X121159500Y-77213000D01*
X121150794Y-77146871D01*
X121134181Y-77084871D01*
X121108656Y-77023250D01*
X121068053Y-76970334D01*
X121022666Y-76924947D01*
X120997344Y-76905517D01*
X120976198Y-76889291D01*
X120976194Y-76889289D01*
X120969750Y-76884344D01*
X120962244Y-76881235D01*
X120962241Y-76881233D01*
X120911867Y-76860367D01*
X120911861Y-76860365D01*
X120908129Y-76858819D01*
X120904223Y-76857772D01*
X120904219Y-76857771D01*
X120850047Y-76843255D01*
X120850034Y-76843252D01*
X120846129Y-76842206D01*
X120835646Y-76840825D01*
X120784020Y-76834029D01*
X120784016Y-76834028D01*
X120780000Y-76833500D01*
X119636950Y-76833500D01*
X119579324Y-76819296D01*
X119534900Y-76779939D01*
X119513854Y-76724445D01*
X119509141Y-76685629D01*
X119508237Y-76678182D01*
X119452220Y-76530477D01*
X119362483Y-76400470D01*
X119309860Y-76353851D01*
X119244240Y-76295717D01*
X119245228Y-76294601D01*
X119212470Y-76257633D01*
X119198263Y-76200000D01*
X119212470Y-76142367D01*
X119245228Y-76105398D01*
X119244240Y-76104283D01*
X119260910Y-76089515D01*
X119362483Y-75999530D01*
X119452220Y-75869523D01*
X119508237Y-75721818D01*
X119527278Y-75565000D01*
X119508237Y-75408182D01*
X119452220Y-75260477D01*
X119362483Y-75130470D01*
X119350466Y-75119824D01*
X119249856Y-75030692D01*
X119249854Y-75030690D01*
X119244240Y-75025717D01*
X119237595Y-75022229D01*
X119237593Y-75022228D01*
X119111006Y-74955789D01*
X119111002Y-74955787D01*
X119104365Y-74952304D01*
X119097087Y-74950510D01*
X119097084Y-74950509D01*
X118958267Y-74916294D01*
X118958260Y-74916293D01*
X118950985Y-74914500D01*
X118793015Y-74914500D01*
X118785740Y-74916292D01*
X118785732Y-74916294D01*
X118646914Y-74950509D01*
X118646907Y-74950511D01*
X118639635Y-74952304D01*
X118632999Y-74955786D01*
X118627618Y-74957827D01*
X118621222Y-74959902D01*
X118618000Y-74960454D01*
X118612432Y-74962558D01*
X118612431Y-74962559D01*
X118371443Y-75053657D01*
X118326887Y-75061666D01*
X118285503Y-75053737D01*
X118285490Y-75053783D01*
X118284994Y-75053640D01*
X118282428Y-75053148D01*
X118274687Y-75050120D01*
X118269304Y-75049091D01*
X118263305Y-75046722D01*
X118263281Y-75046799D01*
X118253994Y-75043781D01*
X118245304Y-75039354D01*
X118235670Y-75037828D01*
X118235667Y-75037827D01*
X118156339Y-75025263D01*
X118156333Y-75025262D01*
X118151519Y-75024500D01*
X118146640Y-75024500D01*
X116693352Y-75024500D01*
X116693339Y-75024500D01*
X116688482Y-75024501D01*
X116683680Y-75025261D01*
X116683673Y-75025262D01*
X116604331Y-75037828D01*
X116604330Y-75037828D01*
X116594696Y-75039354D01*
X116586010Y-75043779D01*
X116586003Y-75043782D01*
X116490353Y-75092519D01*
X116490349Y-75092521D01*
X116481658Y-75096950D01*
X116474759Y-75103848D01*
X116474756Y-75103851D01*
X116398851Y-75179756D01*
X116398848Y-75179759D01*
X116391950Y-75186658D01*
X116387521Y-75195349D01*
X116387519Y-75195353D01*
X116338785Y-75290999D01*
X116334354Y-75299696D01*
X116332827Y-75309330D01*
X116332826Y-75309337D01*
X116320263Y-75388660D01*
X116320262Y-75388667D01*
X116319500Y-75393481D01*
X116319500Y-75398358D01*
X116319500Y-75398359D01*
X116319500Y-75751647D01*
X116319500Y-75751659D01*
X116319501Y-75756518D01*
X116334354Y-75850304D01*
X116338780Y-75858991D01*
X116338782Y-75858996D01*
X116367174Y-75914717D01*
X116391950Y-75963342D01*
X116481658Y-76053050D01*
X116510008Y-76067495D01*
X116553224Y-76089515D01*
X116602656Y-76135210D01*
X116620929Y-76200000D01*
X116602656Y-76264790D01*
X116553224Y-76310485D01*
X116490353Y-76342519D01*
X116490349Y-76342521D01*
X116481658Y-76346950D01*
X116474759Y-76353848D01*
X116474756Y-76353851D01*
X116398851Y-76429756D01*
X116398848Y-76429759D01*
X116391950Y-76436658D01*
X116387521Y-76445349D01*
X116387519Y-76445353D01*
X116340571Y-76537494D01*
X116334354Y-76549696D01*
X116332827Y-76559330D01*
X116332826Y-76559337D01*
X116320263Y-76638660D01*
X116320262Y-76638667D01*
X116319500Y-76643481D01*
X116319500Y-76648358D01*
X116319500Y-76648359D01*
X116319500Y-77001647D01*
X116319500Y-77001659D01*
X116319501Y-77006518D01*
X116320261Y-77011320D01*
X116320262Y-77011326D01*
X116323340Y-77030758D01*
X116334354Y-77100304D01*
X116338780Y-77108991D01*
X116338782Y-77108996D01*
X116381216Y-77192276D01*
X116394561Y-77242080D01*
X116386496Y-77293007D01*
X116358414Y-77336250D01*
X116316814Y-77377851D01*
X116316794Y-77377872D01*
X116314649Y-77380018D01*
X116312716Y-77382372D01*
X116312710Y-77382380D01*
X116284803Y-77416386D01*
X116284793Y-77416399D01*
X116282869Y-77418744D01*
X116281191Y-77421255D01*
X116281178Y-77421273D01*
X116259376Y-77453906D01*
X116255993Y-77458970D01*
X116253665Y-77464590D01*
X116253661Y-77464598D01*
X116220180Y-77545434D01*
X116217849Y-77551063D01*
X116216661Y-77557033D01*
X116216660Y-77557038D01*
X116209003Y-77595531D01*
X116209001Y-77595542D01*
X116208410Y-77598515D01*
X116208112Y-77601533D01*
X116208112Y-77601538D01*
X116203798Y-77645329D01*
X116203797Y-77645344D01*
X116203500Y-77648362D01*
X116203500Y-79440000D01*
X111760500Y-79440000D01*
X111760500Y-71123479D01*
X111760695Y-71116528D01*
X111762004Y-71093212D01*
X111766989Y-71004450D01*
X111777200Y-70835642D01*
X111778719Y-70822413D01*
X111801169Y-70690282D01*
X111801388Y-70689044D01*
X111828009Y-70543780D01*
X111830812Y-70531855D01*
X111869040Y-70399161D01*
X111869757Y-70396772D01*
X111912427Y-70259839D01*
X111916231Y-70249330D01*
X111969714Y-70120214D01*
X111971109Y-70116984D01*
X112029307Y-69987673D01*
X112033821Y-69978650D01*
X112101820Y-69855615D01*
X112104172Y-69851549D01*
X112177051Y-69730991D01*
X112182027Y-69723406D01*
X112263605Y-69608431D01*
X112267048Y-69603815D01*
X112353697Y-69493215D01*
X112358797Y-69487122D01*
X112452892Y-69381829D01*
X112457603Y-69376847D01*
X112556847Y-69277603D01*
X112561829Y-69272892D01*
X112667122Y-69178797D01*
X112673215Y-69173697D01*
X112783815Y-69087048D01*
X112788431Y-69083605D01*
X112903410Y-69002024D01*
X112910991Y-68997051D01*
X113031549Y-68924172D01*
X113035615Y-68921820D01*
X113158650Y-68853821D01*
X113167673Y-68849307D01*
X113296984Y-68791109D01*
X113300214Y-68789714D01*
X113429330Y-68736231D01*
X113439839Y-68732427D01*
X113576772Y-68689757D01*
X113579161Y-68689040D01*
X113711855Y-68650812D01*
X113723780Y-68648009D01*
X113869044Y-68621388D01*
X113870282Y-68621169D01*
X114002413Y-68598719D01*
X114015642Y-68597200D01*
X114184450Y-68586989D01*
X114296527Y-68580695D01*
X114303479Y-68580500D01*
X129536521Y-68580500D01*
X129543471Y-68580694D01*
G37*
G04 #@! TD.AperFunction*
G04 #@! TA.AperFunction,Conductor*
G36*
X130174410Y-81558801D02*
G01*
X130339889Y-81724280D01*
X130343140Y-81730531D01*
X130342211Y-81737516D01*
X130007732Y-82451582D01*
X130001380Y-82457523D01*
X129992683Y-82457438D01*
X129608156Y-82299121D01*
X129603539Y-82295691D01*
X129601114Y-82290476D01*
X129514092Y-81830397D01*
X129515311Y-81822630D01*
X129521170Y-81817389D01*
X130161722Y-81556239D01*
X130168452Y-81555605D01*
X130174410Y-81558801D01*
G37*
G04 #@! TD.AperFunction*
G04 #@! TA.AperFunction,Conductor*
G36*
X130597709Y-80527011D02*
G01*
X130962140Y-80928717D01*
X131014200Y-80986101D01*
X131017235Y-80993907D01*
X131014273Y-81001742D01*
X130537433Y-81537327D01*
X130532157Y-81540723D01*
X130525886Y-81540905D01*
X130520422Y-81537820D01*
X130352987Y-81370385D01*
X130351926Y-81369167D01*
X130062379Y-80986101D01*
X130026242Y-80938292D01*
X130023954Y-80932581D01*
X130024880Y-80926498D01*
X130028762Y-80921729D01*
X130582234Y-80525360D01*
X130590286Y-80523239D01*
X130597709Y-80527011D01*
G37*
G04 #@! TD.AperFunction*
G04 #@! TA.AperFunction,Conductor*
G36*
X126418665Y-80526896D02*
G01*
X126952398Y-81013261D01*
X126956128Y-81020458D01*
X126954285Y-81028351D01*
X126633468Y-81514742D01*
X126629247Y-81518602D01*
X126623701Y-81520000D01*
X126385412Y-81520000D01*
X126380499Y-81518919D01*
X126376495Y-81515874D01*
X125961950Y-81027828D01*
X125959170Y-81020064D01*
X125962203Y-81012394D01*
X126402121Y-80527680D01*
X126407221Y-80524400D01*
X126413278Y-80524113D01*
X126418665Y-80526896D01*
G37*
G04 #@! TD.AperFunction*
G04 #@! TA.AperFunction,Conductor*
G36*
X126628975Y-81372692D02*
G01*
X126633283Y-81377279D01*
X126933349Y-81951243D01*
X126934414Y-81959145D01*
X126930169Y-81965895D01*
X126512188Y-82291401D01*
X126504999Y-82293870D01*
X126497810Y-82291401D01*
X126079830Y-81965895D01*
X126075585Y-81959145D01*
X126076649Y-81951244D01*
X126376717Y-81377278D01*
X126381025Y-81372692D01*
X126387086Y-81371000D01*
X126622914Y-81371000D01*
X126628975Y-81372692D01*
G37*
G04 #@! TD.AperFunction*
G04 #@! TA.AperFunction,Conductor*
G36*
X126320775Y-74316795D02*
G01*
X126360224Y-74323371D01*
X126367227Y-74327349D01*
X126370000Y-74334912D01*
X126370000Y-74565089D01*
X126367227Y-74572652D01*
X126360224Y-74576629D01*
X126224452Y-74599258D01*
X126223954Y-74599341D01*
X126222031Y-74599500D01*
X126218776Y-74599500D01*
X126216409Y-74599258D01*
X126029662Y-74560673D01*
X125549455Y-74461457D01*
X125542751Y-74457389D01*
X125540123Y-74450000D01*
X125542751Y-74442611D01*
X125549455Y-74438542D01*
X126217865Y-74300440D01*
X126222148Y-74300358D01*
X126320775Y-74316795D01*
G37*
G04 #@! TD.AperFunction*
G04 #@! TA.AperFunction,Conductor*
G36*
X126959732Y-69948418D02*
G01*
X127294211Y-70662483D01*
X127295140Y-70669468D01*
X127291889Y-70675719D01*
X127126410Y-70841198D01*
X127120452Y-70844394D01*
X127113720Y-70843759D01*
X126473171Y-70582610D01*
X126467311Y-70577369D01*
X126466092Y-70569603D01*
X126553115Y-70109520D01*
X126555539Y-70104308D01*
X126560152Y-70100880D01*
X126944684Y-69942561D01*
X126953380Y-69942477D01*
X126959732Y-69948418D01*
G37*
G04 #@! TD.AperFunction*
G04 #@! TA.AperFunction,Conductor*
G36*
X126244833Y-77304138D02*
G01*
X126314069Y-77315678D01*
X126360224Y-77323371D01*
X126367227Y-77327349D01*
X126370000Y-77334912D01*
X126370000Y-77565089D01*
X126367227Y-77572652D01*
X126360224Y-77576629D01*
X126224452Y-77599258D01*
X126223954Y-77599341D01*
X126222031Y-77599500D01*
X126218776Y-77599500D01*
X126216409Y-77599258D01*
X125549456Y-77461457D01*
X125542751Y-77457388D01*
X125540123Y-77449999D01*
X125542751Y-77442610D01*
X125549453Y-77438542D01*
X126198884Y-77304362D01*
X126201840Y-77304136D01*
X126218776Y-77305000D01*
X126221934Y-77305000D01*
X126222031Y-77305000D01*
X126238965Y-77304301D01*
X126240888Y-77304142D01*
X126241466Y-77304070D01*
X126244833Y-77304138D01*
G37*
G04 #@! TD.AperFunction*
G04 #@! TA.AperFunction,Conductor*
G36*
X129605702Y-70109030D02*
G01*
X129610825Y-70112677D01*
X129936103Y-70514918D01*
X129938704Y-70522136D01*
X129936274Y-70529414D01*
X129593513Y-70974439D01*
X129589409Y-70977798D01*
X129584244Y-70979000D01*
X129349291Y-70979000D01*
X129342015Y-70976463D01*
X129337895Y-70969951D01*
X129219773Y-70462196D01*
X129219992Y-70456084D01*
X129223265Y-70450918D01*
X129593825Y-70111405D01*
X129599431Y-70108562D01*
X129605702Y-70109030D01*
G37*
G04 #@! TD.AperFunction*
G04 #@! TA.AperFunction,Conductor*
G36*
X118717115Y-76469649D02*
G01*
X118723280Y-76475890D01*
X118871123Y-76830497D01*
X118872024Y-76834999D01*
X118871123Y-76839501D01*
X118723280Y-77194109D01*
X118717115Y-77200350D01*
X118708344Y-77200551D01*
X118079563Y-76962859D01*
X118074075Y-76958567D01*
X118072000Y-76951915D01*
X118072000Y-76718085D01*
X118074075Y-76711433D01*
X118079563Y-76707141D01*
X118708345Y-76469448D01*
X118717115Y-76469649D01*
G37*
G04 #@! TD.AperFunction*
G04 #@! TA.AperFunction,Conductor*
G36*
X118181800Y-76538362D02*
G01*
X118563031Y-76706919D01*
X118568104Y-76711235D01*
X118570000Y-76717620D01*
X118570000Y-76952014D01*
X118567963Y-76958610D01*
X118562562Y-76962909D01*
X118461549Y-77002425D01*
X118181606Y-77111937D01*
X118173183Y-77111976D01*
X117752797Y-76952014D01*
X117447736Y-76835934D01*
X117442265Y-76831641D01*
X117440198Y-76825000D01*
X117442265Y-76818359D01*
X117447736Y-76814065D01*
X118172908Y-76538128D01*
X118181800Y-76538362D01*
G37*
G04 #@! TD.AperFunction*
G04 #@! TA.AperFunction,Conductor*
G36*
X118717115Y-75199649D02*
G01*
X118723280Y-75205890D01*
X118871123Y-75560497D01*
X118872024Y-75564999D01*
X118871123Y-75569501D01*
X118723280Y-75924109D01*
X118717115Y-75930350D01*
X118708344Y-75930551D01*
X118079563Y-75692859D01*
X118074075Y-75688567D01*
X118072000Y-75681915D01*
X118072000Y-75448085D01*
X118074075Y-75441433D01*
X118079563Y-75437141D01*
X118708345Y-75199448D01*
X118717115Y-75199649D01*
G37*
G04 #@! TD.AperFunction*
G04 #@! TA.AperFunction,Conductor*
G36*
X118181605Y-75288061D02*
G01*
X118562562Y-75437090D01*
X118567963Y-75441390D01*
X118570000Y-75447986D01*
X118570000Y-75682380D01*
X118568104Y-75688765D01*
X118563031Y-75693081D01*
X118181800Y-75861637D01*
X118172908Y-75861871D01*
X117633856Y-75656755D01*
X117447736Y-75585934D01*
X117442265Y-75581641D01*
X117440198Y-75575000D01*
X117442265Y-75568359D01*
X117447736Y-75564065D01*
X118173184Y-75288023D01*
X118181605Y-75288061D01*
G37*
G04 #@! TD.AperFunction*
G04 #@! TA.AperFunction,Conductor*
G36*
X126462128Y-76305957D02*
G01*
X126816002Y-76452141D01*
X126819814Y-76454687D01*
X126822355Y-76458503D01*
X126967982Y-76812391D01*
X126968742Y-76818517D01*
X126966278Y-76824177D01*
X126961276Y-76827796D01*
X126319020Y-77069059D01*
X126311627Y-77069337D01*
X126305545Y-77065125D01*
X126303206Y-77058106D01*
X126303206Y-76826609D01*
X126303639Y-76823454D01*
X126315630Y-76780628D01*
X126320395Y-76774056D01*
X126364552Y-76744552D01*
X126408867Y-76678231D01*
X126420500Y-76619748D01*
X126420500Y-76407712D01*
X126420933Y-76404557D01*
X126424169Y-76392996D01*
X126446397Y-76313614D01*
X126449821Y-76308090D01*
X126455667Y-76305244D01*
X126462128Y-76305957D01*
G37*
G04 #@! TD.AperFunction*
G04 #@! TA.AperFunction,Conductor*
G36*
X126223953Y-76800658D02*
G01*
X126269377Y-76808229D01*
X126360224Y-76823371D01*
X126367227Y-76827349D01*
X126370000Y-76834912D01*
X126370000Y-77065089D01*
X126367227Y-77072652D01*
X126360224Y-77076629D01*
X126224452Y-77099258D01*
X126223954Y-77099341D01*
X126222031Y-77099500D01*
X126218776Y-77099500D01*
X126216409Y-77099258D01*
X126029662Y-77060674D01*
X125549455Y-76961457D01*
X125542751Y-76957389D01*
X125540123Y-76950000D01*
X125542751Y-76942611D01*
X125549455Y-76938542D01*
X126216408Y-76800742D01*
X126218776Y-76800500D01*
X126222031Y-76800500D01*
X126223953Y-76800658D01*
G37*
G04 #@! TD.AperFunction*
G04 #@! TA.AperFunction,Conductor*
G36*
X126332927Y-75831332D02*
G01*
X126674597Y-75966535D01*
X126961546Y-76080084D01*
X126966442Y-76083735D01*
X126968830Y-76089357D01*
X126968061Y-76095415D01*
X126822355Y-76449496D01*
X126819814Y-76453312D01*
X126816002Y-76455858D01*
X126462479Y-76601897D01*
X126455908Y-76602592D01*
X126450009Y-76599617D01*
X126446662Y-76593923D01*
X126420848Y-76490675D01*
X126420500Y-76487838D01*
X126420500Y-76280832D01*
X126420500Y-76280252D01*
X126408867Y-76221769D01*
X126364552Y-76155448D01*
X126335273Y-76135884D01*
X126330423Y-76128996D01*
X126317272Y-76076395D01*
X126316924Y-76073558D01*
X126316924Y-75842212D01*
X126319304Y-75835139D01*
X126325476Y-75830943D01*
X126332927Y-75831332D01*
G37*
G04 #@! TD.AperFunction*
G04 #@! TA.AperFunction,Conductor*
G36*
X126223953Y-75800658D02*
G01*
X126269377Y-75808229D01*
X126360224Y-75823371D01*
X126367227Y-75827349D01*
X126370000Y-75834912D01*
X126370000Y-76065089D01*
X126367227Y-76072652D01*
X126360224Y-76076629D01*
X126224452Y-76099258D01*
X126223954Y-76099341D01*
X126222031Y-76099500D01*
X126218776Y-76099500D01*
X126216409Y-76099258D01*
X126029662Y-76060674D01*
X125549455Y-75961457D01*
X125542751Y-75957389D01*
X125540123Y-75950000D01*
X125542751Y-75942611D01*
X125549455Y-75938542D01*
X126216408Y-75800742D01*
X126218776Y-75800500D01*
X126222031Y-75800500D01*
X126223953Y-75800658D01*
G37*
G04 #@! TD.AperFunction*
G04 #@! TA.AperFunction,Conductor*
G36*
X124446709Y-75797382D02*
G01*
X124453038Y-75803694D01*
X124568600Y-76081058D01*
X124569500Y-76085558D01*
X124569500Y-76119748D01*
X124581133Y-76178231D01*
X124625448Y-76244552D01*
X124626406Y-76245192D01*
X124638126Y-76253023D01*
X124642426Y-76258251D01*
X124669337Y-76322840D01*
X124670237Y-76327340D01*
X124670237Y-76558531D01*
X124667954Y-76565475D01*
X124661995Y-76569708D01*
X124654686Y-76569579D01*
X123937599Y-76319620D01*
X123932452Y-76316051D01*
X123929884Y-76310338D01*
X123930629Y-76304124D01*
X124076148Y-75950499D01*
X124078687Y-75946687D01*
X124082497Y-75944142D01*
X124437772Y-75797380D01*
X124446709Y-75797382D01*
G37*
G04 #@! TD.AperFunction*
G04 #@! TA.AperFunction,Conductor*
G36*
X124773591Y-76300742D02*
G01*
X125440543Y-76438542D01*
X125447248Y-76442611D01*
X125449876Y-76450000D01*
X125447248Y-76457389D01*
X125440543Y-76461458D01*
X124773591Y-76599258D01*
X124771224Y-76599500D01*
X124767969Y-76599500D01*
X124766046Y-76599341D01*
X124765548Y-76599258D01*
X124629775Y-76576629D01*
X124622773Y-76572652D01*
X124620000Y-76565089D01*
X124620000Y-76334912D01*
X124622773Y-76327349D01*
X124629776Y-76323371D01*
X124720621Y-76308229D01*
X124766046Y-76300658D01*
X124767969Y-76300500D01*
X124771224Y-76300500D01*
X124773591Y-76300742D01*
G37*
G04 #@! TD.AperFunction*
G04 #@! TA.AperFunction,Conductor*
G36*
X124671293Y-75334371D02*
G01*
X124673551Y-75341280D01*
X124673551Y-75572594D01*
X124672602Y-75577210D01*
X124645836Y-75639552D01*
X124641586Y-75644664D01*
X124626404Y-75654809D01*
X124625448Y-75655448D01*
X124624809Y-75656403D01*
X124624807Y-75656406D01*
X124581773Y-75720810D01*
X124581771Y-75720813D01*
X124581133Y-75721769D01*
X124569500Y-75780252D01*
X124569500Y-75780832D01*
X124569500Y-75814952D01*
X124568551Y-75819568D01*
X124453104Y-76088469D01*
X124446766Y-76094689D01*
X124437886Y-76094667D01*
X124082499Y-75947858D01*
X124078687Y-75945312D01*
X124076147Y-75941498D01*
X123930683Y-75588005D01*
X123929944Y-75581744D01*
X123932560Y-75576009D01*
X123937770Y-75572464D01*
X124412167Y-75412911D01*
X124658121Y-75330190D01*
X124665390Y-75330128D01*
X124671293Y-75334371D01*
G37*
G04 #@! TD.AperFunction*
G04 #@! TA.AperFunction,Conductor*
G36*
X124773591Y-75300742D02*
G01*
X125440543Y-75438542D01*
X125447248Y-75442611D01*
X125449876Y-75450000D01*
X125447248Y-75457389D01*
X125440543Y-75461458D01*
X124773591Y-75599258D01*
X124771224Y-75599500D01*
X124767969Y-75599500D01*
X124766046Y-75599341D01*
X124765548Y-75599258D01*
X124629775Y-75576629D01*
X124622773Y-75572652D01*
X124620000Y-75565089D01*
X124620000Y-75334912D01*
X124622773Y-75327349D01*
X124629776Y-75323371D01*
X124720622Y-75308229D01*
X124766046Y-75300658D01*
X124767969Y-75300500D01*
X124771224Y-75300500D01*
X124773591Y-75300742D01*
G37*
G04 #@! TD.AperFunction*
M02*
