%TF.GenerationSoftware,KiCad,Pcbnew,(7.0.0)*%
%TF.CreationDate,2023-03-15T02:57:20+08:00*%
%TF.ProjectId,USB_C_Breakout_GH1.25_4Pin,5553425f-435f-4427-9265-616b6f75745f,rev?*%
%TF.SameCoordinates,Original*%
%TF.FileFunction,Drillmap*%
%TF.FilePolarity,Positive*%
%FSLAX45Y45*%
G04 Gerber Fmt 4.5, Leading zero omitted, Abs format (unit mm)*
G04 Created by KiCad (PCBNEW (7.0.0)) date 2023-03-15 02:57:20*
%MOMM*%
%LPD*%
G01*
G04 APERTURE LIST*
%ADD10C,0.100000*%
%ADD11C,0.200000*%
%ADD12C,0.065000*%
G04 APERTURE END LIST*
D10*
X13208000Y-7112000D02*
X13208000Y-8128000D01*
X11430000Y-6858000D02*
X12954000Y-6858000D01*
X11176000Y-8128000D02*
X11176000Y-7112000D01*
X12954000Y-8382000D02*
X11430000Y-8382000D01*
X11176000Y-8128000D02*
G75*
G03*
X11430000Y-8382000I254000J0D01*
G01*
X11430000Y-6858000D02*
G75*
G03*
X11176000Y-7112000I0J-254000D01*
G01*
X12954000Y-8382000D02*
G75*
G03*
X13208000Y-8128000I0J254000D01*
G01*
X13208000Y-7112000D02*
G75*
G03*
X12954000Y-6858000I-254000J0D01*
G01*
D11*
D12*
X12661500Y-7298500D02*
X12726500Y-7363500D01*
X12726500Y-7298500D02*
X12661500Y-7363500D01*
X12661500Y-7876500D02*
X12726500Y-7941500D01*
X12726500Y-7876500D02*
X12661500Y-7941500D01*
D11*
X11418619Y-8680476D02*
X11418619Y-8480476D01*
X11418619Y-8480476D02*
X11466238Y-8480476D01*
X11466238Y-8480476D02*
X11494809Y-8490000D01*
X11494809Y-8490000D02*
X11513857Y-8509048D01*
X11513857Y-8509048D02*
X11523381Y-8528095D01*
X11523381Y-8528095D02*
X11532905Y-8566190D01*
X11532905Y-8566190D02*
X11532905Y-8594762D01*
X11532905Y-8594762D02*
X11523381Y-8632857D01*
X11523381Y-8632857D02*
X11513857Y-8651905D01*
X11513857Y-8651905D02*
X11494809Y-8670952D01*
X11494809Y-8670952D02*
X11466238Y-8680476D01*
X11466238Y-8680476D02*
X11418619Y-8680476D01*
X11618619Y-8680476D02*
X11618619Y-8547143D01*
X11618619Y-8585238D02*
X11628143Y-8566190D01*
X11628143Y-8566190D02*
X11637667Y-8556667D01*
X11637667Y-8556667D02*
X11656714Y-8547143D01*
X11656714Y-8547143D02*
X11675762Y-8547143D01*
X11742428Y-8680476D02*
X11742428Y-8547143D01*
X11742428Y-8480476D02*
X11732905Y-8490000D01*
X11732905Y-8490000D02*
X11742428Y-8499524D01*
X11742428Y-8499524D02*
X11751952Y-8490000D01*
X11751952Y-8490000D02*
X11742428Y-8480476D01*
X11742428Y-8480476D02*
X11742428Y-8499524D01*
X11866238Y-8680476D02*
X11847190Y-8670952D01*
X11847190Y-8670952D02*
X11837667Y-8651905D01*
X11837667Y-8651905D02*
X11837667Y-8480476D01*
X11971000Y-8680476D02*
X11951952Y-8670952D01*
X11951952Y-8670952D02*
X11942428Y-8651905D01*
X11942428Y-8651905D02*
X11942428Y-8480476D01*
X12167190Y-8680476D02*
X12167190Y-8480476D01*
X12167190Y-8480476D02*
X12233857Y-8623333D01*
X12233857Y-8623333D02*
X12300524Y-8480476D01*
X12300524Y-8480476D02*
X12300524Y-8680476D01*
X12481476Y-8680476D02*
X12481476Y-8575714D01*
X12481476Y-8575714D02*
X12471952Y-8556667D01*
X12471952Y-8556667D02*
X12452905Y-8547143D01*
X12452905Y-8547143D02*
X12414809Y-8547143D01*
X12414809Y-8547143D02*
X12395762Y-8556667D01*
X12481476Y-8670952D02*
X12462428Y-8680476D01*
X12462428Y-8680476D02*
X12414809Y-8680476D01*
X12414809Y-8680476D02*
X12395762Y-8670952D01*
X12395762Y-8670952D02*
X12386238Y-8651905D01*
X12386238Y-8651905D02*
X12386238Y-8632857D01*
X12386238Y-8632857D02*
X12395762Y-8613810D01*
X12395762Y-8613810D02*
X12414809Y-8604286D01*
X12414809Y-8604286D02*
X12462428Y-8604286D01*
X12462428Y-8604286D02*
X12481476Y-8594762D01*
X12576714Y-8547143D02*
X12576714Y-8747143D01*
X12576714Y-8556667D02*
X12595762Y-8547143D01*
X12595762Y-8547143D02*
X12633857Y-8547143D01*
X12633857Y-8547143D02*
X12652905Y-8556667D01*
X12652905Y-8556667D02*
X12662428Y-8566190D01*
X12662428Y-8566190D02*
X12671952Y-8585238D01*
X12671952Y-8585238D02*
X12671952Y-8642381D01*
X12671952Y-8642381D02*
X12662428Y-8661429D01*
X12662428Y-8661429D02*
X12652905Y-8670952D01*
X12652905Y-8670952D02*
X12633857Y-8680476D01*
X12633857Y-8680476D02*
X12595762Y-8680476D01*
X12595762Y-8680476D02*
X12576714Y-8670952D01*
X12757667Y-8661429D02*
X12767190Y-8670952D01*
X12767190Y-8670952D02*
X12757667Y-8680476D01*
X12757667Y-8680476D02*
X12748143Y-8670952D01*
X12748143Y-8670952D02*
X12757667Y-8661429D01*
X12757667Y-8661429D02*
X12757667Y-8680476D01*
X12757667Y-8556667D02*
X12767190Y-8566190D01*
X12767190Y-8566190D02*
X12757667Y-8575714D01*
X12757667Y-8575714D02*
X12748143Y-8566190D01*
X12748143Y-8566190D02*
X12757667Y-8556667D01*
X12757667Y-8556667D02*
X12757667Y-8575714D01*
D12*
X11106000Y-8994500D02*
X11171000Y-9059500D01*
X11171000Y-8994500D02*
X11106000Y-9059500D01*
D11*
X11456714Y-8900476D02*
X11475762Y-8900476D01*
X11475762Y-8900476D02*
X11494809Y-8910000D01*
X11494809Y-8910000D02*
X11504333Y-8919524D01*
X11504333Y-8919524D02*
X11513857Y-8938571D01*
X11513857Y-8938571D02*
X11523381Y-8976667D01*
X11523381Y-8976667D02*
X11523381Y-9024286D01*
X11523381Y-9024286D02*
X11513857Y-9062381D01*
X11513857Y-9062381D02*
X11504333Y-9081429D01*
X11504333Y-9081429D02*
X11494809Y-9090952D01*
X11494809Y-9090952D02*
X11475762Y-9100476D01*
X11475762Y-9100476D02*
X11456714Y-9100476D01*
X11456714Y-9100476D02*
X11437667Y-9090952D01*
X11437667Y-9090952D02*
X11428143Y-9081429D01*
X11428143Y-9081429D02*
X11418619Y-9062381D01*
X11418619Y-9062381D02*
X11409095Y-9024286D01*
X11409095Y-9024286D02*
X11409095Y-8976667D01*
X11409095Y-8976667D02*
X11418619Y-8938571D01*
X11418619Y-8938571D02*
X11428143Y-8919524D01*
X11428143Y-8919524D02*
X11437667Y-8910000D01*
X11437667Y-8910000D02*
X11456714Y-8900476D01*
X11609095Y-9081429D02*
X11618619Y-9090952D01*
X11618619Y-9090952D02*
X11609095Y-9100476D01*
X11609095Y-9100476D02*
X11599571Y-9090952D01*
X11599571Y-9090952D02*
X11609095Y-9081429D01*
X11609095Y-9081429D02*
X11609095Y-9100476D01*
X11790048Y-8900476D02*
X11751952Y-8900476D01*
X11751952Y-8900476D02*
X11732905Y-8910000D01*
X11732905Y-8910000D02*
X11723381Y-8919524D01*
X11723381Y-8919524D02*
X11704333Y-8948095D01*
X11704333Y-8948095D02*
X11694809Y-8986190D01*
X11694809Y-8986190D02*
X11694809Y-9062381D01*
X11694809Y-9062381D02*
X11704333Y-9081429D01*
X11704333Y-9081429D02*
X11713857Y-9090952D01*
X11713857Y-9090952D02*
X11732905Y-9100476D01*
X11732905Y-9100476D02*
X11771000Y-9100476D01*
X11771000Y-9100476D02*
X11790048Y-9090952D01*
X11790048Y-9090952D02*
X11799571Y-9081429D01*
X11799571Y-9081429D02*
X11809095Y-9062381D01*
X11809095Y-9062381D02*
X11809095Y-9014762D01*
X11809095Y-9014762D02*
X11799571Y-8995714D01*
X11799571Y-8995714D02*
X11790048Y-8986190D01*
X11790048Y-8986190D02*
X11771000Y-8976667D01*
X11771000Y-8976667D02*
X11732905Y-8976667D01*
X11732905Y-8976667D02*
X11713857Y-8986190D01*
X11713857Y-8986190D02*
X11704333Y-8995714D01*
X11704333Y-8995714D02*
X11694809Y-9014762D01*
X11990048Y-8900476D02*
X11894809Y-8900476D01*
X11894809Y-8900476D02*
X11885286Y-8995714D01*
X11885286Y-8995714D02*
X11894809Y-8986190D01*
X11894809Y-8986190D02*
X11913857Y-8976667D01*
X11913857Y-8976667D02*
X11961476Y-8976667D01*
X11961476Y-8976667D02*
X11980524Y-8986190D01*
X11980524Y-8986190D02*
X11990048Y-8995714D01*
X11990048Y-8995714D02*
X11999571Y-9014762D01*
X11999571Y-9014762D02*
X11999571Y-9062381D01*
X11999571Y-9062381D02*
X11990048Y-9081429D01*
X11990048Y-9081429D02*
X11980524Y-9090952D01*
X11980524Y-9090952D02*
X11961476Y-9100476D01*
X11961476Y-9100476D02*
X11913857Y-9100476D01*
X11913857Y-9100476D02*
X11894809Y-9090952D01*
X11894809Y-9090952D02*
X11885286Y-9081429D01*
X12123381Y-8900476D02*
X12142429Y-8900476D01*
X12142429Y-8900476D02*
X12161476Y-8910000D01*
X12161476Y-8910000D02*
X12171000Y-8919524D01*
X12171000Y-8919524D02*
X12180524Y-8938571D01*
X12180524Y-8938571D02*
X12190048Y-8976667D01*
X12190048Y-8976667D02*
X12190048Y-9024286D01*
X12190048Y-9024286D02*
X12180524Y-9062381D01*
X12180524Y-9062381D02*
X12171000Y-9081429D01*
X12171000Y-9081429D02*
X12161476Y-9090952D01*
X12161476Y-9090952D02*
X12142429Y-9100476D01*
X12142429Y-9100476D02*
X12123381Y-9100476D01*
X12123381Y-9100476D02*
X12104333Y-9090952D01*
X12104333Y-9090952D02*
X12094809Y-9081429D01*
X12094809Y-9081429D02*
X12085286Y-9062381D01*
X12085286Y-9062381D02*
X12075762Y-9024286D01*
X12075762Y-9024286D02*
X12075762Y-8976667D01*
X12075762Y-8976667D02*
X12085286Y-8938571D01*
X12085286Y-8938571D02*
X12094809Y-8919524D01*
X12094809Y-8919524D02*
X12104333Y-8910000D01*
X12104333Y-8910000D02*
X12123381Y-8900476D01*
X12275762Y-9100476D02*
X12275762Y-8967143D01*
X12275762Y-8986190D02*
X12285286Y-8976667D01*
X12285286Y-8976667D02*
X12304333Y-8967143D01*
X12304333Y-8967143D02*
X12332905Y-8967143D01*
X12332905Y-8967143D02*
X12351952Y-8976667D01*
X12351952Y-8976667D02*
X12361476Y-8995714D01*
X12361476Y-8995714D02*
X12361476Y-9100476D01*
X12361476Y-8995714D02*
X12371000Y-8976667D01*
X12371000Y-8976667D02*
X12390048Y-8967143D01*
X12390048Y-8967143D02*
X12418619Y-8967143D01*
X12418619Y-8967143D02*
X12437667Y-8976667D01*
X12437667Y-8976667D02*
X12447190Y-8995714D01*
X12447190Y-8995714D02*
X12447190Y-9100476D01*
X12542429Y-9100476D02*
X12542429Y-8967143D01*
X12542429Y-8986190D02*
X12551952Y-8976667D01*
X12551952Y-8976667D02*
X12571000Y-8967143D01*
X12571000Y-8967143D02*
X12599571Y-8967143D01*
X12599571Y-8967143D02*
X12618619Y-8976667D01*
X12618619Y-8976667D02*
X12628143Y-8995714D01*
X12628143Y-8995714D02*
X12628143Y-9100476D01*
X12628143Y-8995714D02*
X12637667Y-8976667D01*
X12637667Y-8976667D02*
X12656714Y-8967143D01*
X12656714Y-8967143D02*
X12685286Y-8967143D01*
X12685286Y-8967143D02*
X12704333Y-8976667D01*
X12704333Y-8976667D02*
X12713857Y-8995714D01*
X12713857Y-8995714D02*
X12713857Y-9100476D01*
X13071952Y-8890952D02*
X12900524Y-9148095D01*
X13296714Y-8900476D02*
X13315762Y-8900476D01*
X13315762Y-8900476D02*
X13334810Y-8910000D01*
X13334810Y-8910000D02*
X13344333Y-8919524D01*
X13344333Y-8919524D02*
X13353857Y-8938571D01*
X13353857Y-8938571D02*
X13363381Y-8976667D01*
X13363381Y-8976667D02*
X13363381Y-9024286D01*
X13363381Y-9024286D02*
X13353857Y-9062381D01*
X13353857Y-9062381D02*
X13344333Y-9081429D01*
X13344333Y-9081429D02*
X13334810Y-9090952D01*
X13334810Y-9090952D02*
X13315762Y-9100476D01*
X13315762Y-9100476D02*
X13296714Y-9100476D01*
X13296714Y-9100476D02*
X13277667Y-9090952D01*
X13277667Y-9090952D02*
X13268143Y-9081429D01*
X13268143Y-9081429D02*
X13258619Y-9062381D01*
X13258619Y-9062381D02*
X13249095Y-9024286D01*
X13249095Y-9024286D02*
X13249095Y-8976667D01*
X13249095Y-8976667D02*
X13258619Y-8938571D01*
X13258619Y-8938571D02*
X13268143Y-8919524D01*
X13268143Y-8919524D02*
X13277667Y-8910000D01*
X13277667Y-8910000D02*
X13296714Y-8900476D01*
X13449095Y-9081429D02*
X13458619Y-9090952D01*
X13458619Y-9090952D02*
X13449095Y-9100476D01*
X13449095Y-9100476D02*
X13439571Y-9090952D01*
X13439571Y-9090952D02*
X13449095Y-9081429D01*
X13449095Y-9081429D02*
X13449095Y-9100476D01*
X13582429Y-8900476D02*
X13601476Y-8900476D01*
X13601476Y-8900476D02*
X13620524Y-8910000D01*
X13620524Y-8910000D02*
X13630048Y-8919524D01*
X13630048Y-8919524D02*
X13639571Y-8938571D01*
X13639571Y-8938571D02*
X13649095Y-8976667D01*
X13649095Y-8976667D02*
X13649095Y-9024286D01*
X13649095Y-9024286D02*
X13639571Y-9062381D01*
X13639571Y-9062381D02*
X13630048Y-9081429D01*
X13630048Y-9081429D02*
X13620524Y-9090952D01*
X13620524Y-9090952D02*
X13601476Y-9100476D01*
X13601476Y-9100476D02*
X13582429Y-9100476D01*
X13582429Y-9100476D02*
X13563381Y-9090952D01*
X13563381Y-9090952D02*
X13553857Y-9081429D01*
X13553857Y-9081429D02*
X13544333Y-9062381D01*
X13544333Y-9062381D02*
X13534810Y-9024286D01*
X13534810Y-9024286D02*
X13534810Y-8976667D01*
X13534810Y-8976667D02*
X13544333Y-8938571D01*
X13544333Y-8938571D02*
X13553857Y-8919524D01*
X13553857Y-8919524D02*
X13563381Y-8910000D01*
X13563381Y-8910000D02*
X13582429Y-8900476D01*
X13725286Y-8919524D02*
X13734810Y-8910000D01*
X13734810Y-8910000D02*
X13753857Y-8900476D01*
X13753857Y-8900476D02*
X13801476Y-8900476D01*
X13801476Y-8900476D02*
X13820524Y-8910000D01*
X13820524Y-8910000D02*
X13830048Y-8919524D01*
X13830048Y-8919524D02*
X13839571Y-8938571D01*
X13839571Y-8938571D02*
X13839571Y-8957619D01*
X13839571Y-8957619D02*
X13830048Y-8986190D01*
X13830048Y-8986190D02*
X13715762Y-9100476D01*
X13715762Y-9100476D02*
X13839571Y-9100476D01*
X14020524Y-8900476D02*
X13925286Y-8900476D01*
X13925286Y-8900476D02*
X13915762Y-8995714D01*
X13915762Y-8995714D02*
X13925286Y-8986190D01*
X13925286Y-8986190D02*
X13944333Y-8976667D01*
X13944333Y-8976667D02*
X13991952Y-8976667D01*
X13991952Y-8976667D02*
X14011000Y-8986190D01*
X14011000Y-8986190D02*
X14020524Y-8995714D01*
X14020524Y-8995714D02*
X14030048Y-9014762D01*
X14030048Y-9014762D02*
X14030048Y-9062381D01*
X14030048Y-9062381D02*
X14020524Y-9081429D01*
X14020524Y-9081429D02*
X14011000Y-9090952D01*
X14011000Y-9090952D02*
X13991952Y-9100476D01*
X13991952Y-9100476D02*
X13944333Y-9100476D01*
X13944333Y-9100476D02*
X13925286Y-9090952D01*
X13925286Y-9090952D02*
X13915762Y-9081429D01*
X14201476Y-8900476D02*
X14163381Y-8900476D01*
X14163381Y-8900476D02*
X14144333Y-8910000D01*
X14144333Y-8910000D02*
X14134810Y-8919524D01*
X14134810Y-8919524D02*
X14115762Y-8948095D01*
X14115762Y-8948095D02*
X14106238Y-8986190D01*
X14106238Y-8986190D02*
X14106238Y-9062381D01*
X14106238Y-9062381D02*
X14115762Y-9081429D01*
X14115762Y-9081429D02*
X14125286Y-9090952D01*
X14125286Y-9090952D02*
X14144333Y-9100476D01*
X14144333Y-9100476D02*
X14182429Y-9100476D01*
X14182429Y-9100476D02*
X14201476Y-9090952D01*
X14201476Y-9090952D02*
X14211000Y-9081429D01*
X14211000Y-9081429D02*
X14220524Y-9062381D01*
X14220524Y-9062381D02*
X14220524Y-9014762D01*
X14220524Y-9014762D02*
X14211000Y-8995714D01*
X14211000Y-8995714D02*
X14201476Y-8986190D01*
X14201476Y-8986190D02*
X14182429Y-8976667D01*
X14182429Y-8976667D02*
X14144333Y-8976667D01*
X14144333Y-8976667D02*
X14125286Y-8986190D01*
X14125286Y-8986190D02*
X14115762Y-8995714D01*
X14115762Y-8995714D02*
X14106238Y-9014762D01*
X14296714Y-8900476D02*
X14296714Y-8938571D01*
X14372905Y-8900476D02*
X14372905Y-8938571D01*
X14635762Y-9176667D02*
X14626238Y-9167143D01*
X14626238Y-9167143D02*
X14607191Y-9138571D01*
X14607191Y-9138571D02*
X14597667Y-9119524D01*
X14597667Y-9119524D02*
X14588143Y-9090952D01*
X14588143Y-9090952D02*
X14578619Y-9043333D01*
X14578619Y-9043333D02*
X14578619Y-9005238D01*
X14578619Y-9005238D02*
X14588143Y-8957619D01*
X14588143Y-8957619D02*
X14597667Y-8929048D01*
X14597667Y-8929048D02*
X14607191Y-8910000D01*
X14607191Y-8910000D02*
X14626238Y-8881429D01*
X14626238Y-8881429D02*
X14635762Y-8871905D01*
X14702429Y-8919524D02*
X14711952Y-8910000D01*
X14711952Y-8910000D02*
X14731000Y-8900476D01*
X14731000Y-8900476D02*
X14778619Y-8900476D01*
X14778619Y-8900476D02*
X14797667Y-8910000D01*
X14797667Y-8910000D02*
X14807191Y-8919524D01*
X14807191Y-8919524D02*
X14816714Y-8938571D01*
X14816714Y-8938571D02*
X14816714Y-8957619D01*
X14816714Y-8957619D02*
X14807191Y-8986190D01*
X14807191Y-8986190D02*
X14692905Y-9100476D01*
X14692905Y-9100476D02*
X14816714Y-9100476D01*
X15022429Y-9100476D02*
X15022429Y-8900476D01*
X15108143Y-9100476D02*
X15108143Y-8995714D01*
X15108143Y-8995714D02*
X15098619Y-8976667D01*
X15098619Y-8976667D02*
X15079572Y-8967143D01*
X15079572Y-8967143D02*
X15051000Y-8967143D01*
X15051000Y-8967143D02*
X15031952Y-8976667D01*
X15031952Y-8976667D02*
X15022429Y-8986190D01*
X15231952Y-9100476D02*
X15212905Y-9090952D01*
X15212905Y-9090952D02*
X15203381Y-9081429D01*
X15203381Y-9081429D02*
X15193857Y-9062381D01*
X15193857Y-9062381D02*
X15193857Y-9005238D01*
X15193857Y-9005238D02*
X15203381Y-8986190D01*
X15203381Y-8986190D02*
X15212905Y-8976667D01*
X15212905Y-8976667D02*
X15231952Y-8967143D01*
X15231952Y-8967143D02*
X15260524Y-8967143D01*
X15260524Y-8967143D02*
X15279572Y-8976667D01*
X15279572Y-8976667D02*
X15289095Y-8986190D01*
X15289095Y-8986190D02*
X15298619Y-9005238D01*
X15298619Y-9005238D02*
X15298619Y-9062381D01*
X15298619Y-9062381D02*
X15289095Y-9081429D01*
X15289095Y-9081429D02*
X15279572Y-9090952D01*
X15279572Y-9090952D02*
X15260524Y-9100476D01*
X15260524Y-9100476D02*
X15231952Y-9100476D01*
X15412905Y-9100476D02*
X15393857Y-9090952D01*
X15393857Y-9090952D02*
X15384333Y-9071905D01*
X15384333Y-9071905D02*
X15384333Y-8900476D01*
X15565286Y-9090952D02*
X15546238Y-9100476D01*
X15546238Y-9100476D02*
X15508143Y-9100476D01*
X15508143Y-9100476D02*
X15489095Y-9090952D01*
X15489095Y-9090952D02*
X15479572Y-9071905D01*
X15479572Y-9071905D02*
X15479572Y-8995714D01*
X15479572Y-8995714D02*
X15489095Y-8976667D01*
X15489095Y-8976667D02*
X15508143Y-8967143D01*
X15508143Y-8967143D02*
X15546238Y-8967143D01*
X15546238Y-8967143D02*
X15565286Y-8976667D01*
X15565286Y-8976667D02*
X15574810Y-8995714D01*
X15574810Y-8995714D02*
X15574810Y-9014762D01*
X15574810Y-9014762D02*
X15479572Y-9033810D01*
X15651000Y-9090952D02*
X15670048Y-9100476D01*
X15670048Y-9100476D02*
X15708143Y-9100476D01*
X15708143Y-9100476D02*
X15727191Y-9090952D01*
X15727191Y-9090952D02*
X15736714Y-9071905D01*
X15736714Y-9071905D02*
X15736714Y-9062381D01*
X15736714Y-9062381D02*
X15727191Y-9043333D01*
X15727191Y-9043333D02*
X15708143Y-9033810D01*
X15708143Y-9033810D02*
X15679572Y-9033810D01*
X15679572Y-9033810D02*
X15660524Y-9024286D01*
X15660524Y-9024286D02*
X15651000Y-9005238D01*
X15651000Y-9005238D02*
X15651000Y-8995714D01*
X15651000Y-8995714D02*
X15660524Y-8976667D01*
X15660524Y-8976667D02*
X15679572Y-8967143D01*
X15679572Y-8967143D02*
X15708143Y-8967143D01*
X15708143Y-8967143D02*
X15727191Y-8976667D01*
X15803381Y-9176667D02*
X15812905Y-9167143D01*
X15812905Y-9167143D02*
X15831953Y-9138571D01*
X15831953Y-9138571D02*
X15841476Y-9119524D01*
X15841476Y-9119524D02*
X15851000Y-9090952D01*
X15851000Y-9090952D02*
X15860524Y-9043333D01*
X15860524Y-9043333D02*
X15860524Y-9005238D01*
X15860524Y-9005238D02*
X15851000Y-8957619D01*
X15851000Y-8957619D02*
X15841476Y-8929048D01*
X15841476Y-8929048D02*
X15831953Y-8910000D01*
X15831953Y-8910000D02*
X15812905Y-8881429D01*
X15812905Y-8881429D02*
X15803381Y-8871905D01*
X16132905Y-9176667D02*
X16123381Y-9167143D01*
X16123381Y-9167143D02*
X16104333Y-9138571D01*
X16104333Y-9138571D02*
X16094810Y-9119524D01*
X16094810Y-9119524D02*
X16085286Y-9090952D01*
X16085286Y-9090952D02*
X16075762Y-9043333D01*
X16075762Y-9043333D02*
X16075762Y-9005238D01*
X16075762Y-9005238D02*
X16085286Y-8957619D01*
X16085286Y-8957619D02*
X16094810Y-8929048D01*
X16094810Y-8929048D02*
X16104333Y-8910000D01*
X16104333Y-8910000D02*
X16123381Y-8881429D01*
X16123381Y-8881429D02*
X16132905Y-8871905D01*
X16209095Y-8967143D02*
X16209095Y-9100476D01*
X16209095Y-8986190D02*
X16218619Y-8976667D01*
X16218619Y-8976667D02*
X16237667Y-8967143D01*
X16237667Y-8967143D02*
X16266238Y-8967143D01*
X16266238Y-8967143D02*
X16285286Y-8976667D01*
X16285286Y-8976667D02*
X16294810Y-8995714D01*
X16294810Y-8995714D02*
X16294810Y-9100476D01*
X16418619Y-9100476D02*
X16399572Y-9090952D01*
X16399572Y-9090952D02*
X16390048Y-9081429D01*
X16390048Y-9081429D02*
X16380524Y-9062381D01*
X16380524Y-9062381D02*
X16380524Y-9005238D01*
X16380524Y-9005238D02*
X16390048Y-8986190D01*
X16390048Y-8986190D02*
X16399572Y-8976667D01*
X16399572Y-8976667D02*
X16418619Y-8967143D01*
X16418619Y-8967143D02*
X16447191Y-8967143D01*
X16447191Y-8967143D02*
X16466238Y-8976667D01*
X16466238Y-8976667D02*
X16475762Y-8986190D01*
X16475762Y-8986190D02*
X16485286Y-9005238D01*
X16485286Y-9005238D02*
X16485286Y-9062381D01*
X16485286Y-9062381D02*
X16475762Y-9081429D01*
X16475762Y-9081429D02*
X16466238Y-9090952D01*
X16466238Y-9090952D02*
X16447191Y-9100476D01*
X16447191Y-9100476D02*
X16418619Y-9100476D01*
X16542429Y-8967143D02*
X16618619Y-8967143D01*
X16571000Y-8900476D02*
X16571000Y-9071905D01*
X16571000Y-9071905D02*
X16580524Y-9090952D01*
X16580524Y-9090952D02*
X16599572Y-9100476D01*
X16599572Y-9100476D02*
X16618619Y-9100476D01*
X16805286Y-8967143D02*
X16805286Y-9167143D01*
X16805286Y-8976667D02*
X16824334Y-8967143D01*
X16824334Y-8967143D02*
X16862429Y-8967143D01*
X16862429Y-8967143D02*
X16881476Y-8976667D01*
X16881476Y-8976667D02*
X16891000Y-8986190D01*
X16891000Y-8986190D02*
X16900524Y-9005238D01*
X16900524Y-9005238D02*
X16900524Y-9062381D01*
X16900524Y-9062381D02*
X16891000Y-9081429D01*
X16891000Y-9081429D02*
X16881476Y-9090952D01*
X16881476Y-9090952D02*
X16862429Y-9100476D01*
X16862429Y-9100476D02*
X16824334Y-9100476D01*
X16824334Y-9100476D02*
X16805286Y-9090952D01*
X17014810Y-9100476D02*
X16995762Y-9090952D01*
X16995762Y-9090952D02*
X16986238Y-9071905D01*
X16986238Y-9071905D02*
X16986238Y-8900476D01*
X17176715Y-9100476D02*
X17176715Y-8995714D01*
X17176715Y-8995714D02*
X17167191Y-8976667D01*
X17167191Y-8976667D02*
X17148143Y-8967143D01*
X17148143Y-8967143D02*
X17110048Y-8967143D01*
X17110048Y-8967143D02*
X17091000Y-8976667D01*
X17176715Y-9090952D02*
X17157667Y-9100476D01*
X17157667Y-9100476D02*
X17110048Y-9100476D01*
X17110048Y-9100476D02*
X17091000Y-9090952D01*
X17091000Y-9090952D02*
X17081476Y-9071905D01*
X17081476Y-9071905D02*
X17081476Y-9052857D01*
X17081476Y-9052857D02*
X17091000Y-9033810D01*
X17091000Y-9033810D02*
X17110048Y-9024286D01*
X17110048Y-9024286D02*
X17157667Y-9024286D01*
X17157667Y-9024286D02*
X17176715Y-9014762D01*
X17243381Y-8967143D02*
X17319572Y-8967143D01*
X17271953Y-8900476D02*
X17271953Y-9071905D01*
X17271953Y-9071905D02*
X17281476Y-9090952D01*
X17281476Y-9090952D02*
X17300524Y-9100476D01*
X17300524Y-9100476D02*
X17319572Y-9100476D01*
X17462429Y-9090952D02*
X17443381Y-9100476D01*
X17443381Y-9100476D02*
X17405286Y-9100476D01*
X17405286Y-9100476D02*
X17386238Y-9090952D01*
X17386238Y-9090952D02*
X17376715Y-9071905D01*
X17376715Y-9071905D02*
X17376715Y-8995714D01*
X17376715Y-8995714D02*
X17386238Y-8976667D01*
X17386238Y-8976667D02*
X17405286Y-8967143D01*
X17405286Y-8967143D02*
X17443381Y-8967143D01*
X17443381Y-8967143D02*
X17462429Y-8976667D01*
X17462429Y-8976667D02*
X17471953Y-8995714D01*
X17471953Y-8995714D02*
X17471953Y-9014762D01*
X17471953Y-9014762D02*
X17376715Y-9033810D01*
X17643381Y-9100476D02*
X17643381Y-8900476D01*
X17643381Y-9090952D02*
X17624334Y-9100476D01*
X17624334Y-9100476D02*
X17586238Y-9100476D01*
X17586238Y-9100476D02*
X17567191Y-9090952D01*
X17567191Y-9090952D02*
X17557667Y-9081429D01*
X17557667Y-9081429D02*
X17548143Y-9062381D01*
X17548143Y-9062381D02*
X17548143Y-9005238D01*
X17548143Y-9005238D02*
X17557667Y-8986190D01*
X17557667Y-8986190D02*
X17567191Y-8976667D01*
X17567191Y-8976667D02*
X17586238Y-8967143D01*
X17586238Y-8967143D02*
X17624334Y-8967143D01*
X17624334Y-8967143D02*
X17643381Y-8976667D01*
X17719572Y-9176667D02*
X17729096Y-9167143D01*
X17729096Y-9167143D02*
X17748143Y-9138571D01*
X17748143Y-9138571D02*
X17757667Y-9119524D01*
X17757667Y-9119524D02*
X17767191Y-9090952D01*
X17767191Y-9090952D02*
X17776715Y-9043333D01*
X17776715Y-9043333D02*
X17776715Y-9005238D01*
X17776715Y-9005238D02*
X17767191Y-8957619D01*
X17767191Y-8957619D02*
X17757667Y-8929048D01*
X17757667Y-8929048D02*
X17748143Y-8910000D01*
X17748143Y-8910000D02*
X17729096Y-8881429D01*
X17729096Y-8881429D02*
X17719572Y-8871905D01*
M02*
