%TF.GenerationSoftware,KiCad,Pcbnew,(7.0.0)*%
%TF.CreationDate,2023-03-15T02:57:20+08:00*%
%TF.ProjectId,USB_C_Breakout_GH1.25_4Pin,5553425f-435f-4427-9265-616b6f75745f,rev?*%
%TF.SameCoordinates,Original*%
%TF.FileFunction,Drillmap*%
%TF.FilePolarity,Positive*%
%FSLAX45Y45*%
G04 Gerber Fmt 4.5, Leading zero omitted, Abs format (unit mm)*
G04 Created by KiCad (PCBNEW (7.0.0)) date 2023-03-15 02:57:20*
%MOMM*%
%LPD*%
G01*
G04 APERTURE LIST*
%ADD10C,0.100000*%
%ADD11C,0.200000*%
%ADD12C,0.040000*%
%ADD13C,0.060000*%
G04 APERTURE END LIST*
D10*
X13208000Y-7112000D02*
X13208000Y-8128000D01*
X11430000Y-6858000D02*
X12954000Y-6858000D01*
X11176000Y-8128000D02*
X11176000Y-7112000D01*
X12954000Y-8382000D02*
X11430000Y-8382000D01*
X11176000Y-8128000D02*
G75*
G03*
X11430000Y-8382000I254000J0D01*
G01*
X11430000Y-6858000D02*
G75*
G03*
X11176000Y-7112000I0J-254000D01*
G01*
X12954000Y-8382000D02*
G75*
G03*
X13208000Y-8128000I0J254000D01*
G01*
X13208000Y-7112000D02*
G75*
G03*
X12954000Y-6858000I-254000J0D01*
G01*
D11*
D12*
X11537000Y-7346000D02*
X11577000Y-7386000D01*
X11577000Y-7346000D02*
X11537000Y-7386000D01*
X11537000Y-7473000D02*
X11577000Y-7513000D01*
X11577000Y-7473000D02*
X11537000Y-7513000D01*
X11537000Y-7600000D02*
X11577000Y-7640000D01*
X11577000Y-7600000D02*
X11537000Y-7640000D01*
X11537000Y-7727000D02*
X11577000Y-7767000D01*
X11577000Y-7727000D02*
X11537000Y-7767000D01*
X11537000Y-7854000D02*
X11577000Y-7894000D01*
X11577000Y-7854000D02*
X11537000Y-7894000D01*
X11791000Y-7307917D02*
X11831000Y-7347917D01*
X11831000Y-7307917D02*
X11791000Y-7347917D01*
X11867200Y-7536500D02*
X11907200Y-7576500D01*
X11907200Y-7536500D02*
X11867200Y-7576500D01*
X11867200Y-7663500D02*
X11907200Y-7703500D01*
X11907200Y-7663500D02*
X11867200Y-7703500D01*
X12172000Y-7502150D02*
X12212000Y-7542150D01*
X12212000Y-7502150D02*
X12172000Y-7542150D01*
X12210100Y-8057200D02*
X12250100Y-8097200D01*
X12250100Y-8057200D02*
X12210100Y-8097200D01*
X12299000Y-7346000D02*
X12339000Y-7386000D01*
X12339000Y-7346000D02*
X12299000Y-7386000D01*
X12311700Y-8057200D02*
X12351700Y-8097200D01*
X12351700Y-8057200D02*
X12311700Y-8097200D01*
X12387900Y-7574600D02*
X12427900Y-7614600D01*
X12427900Y-7574600D02*
X12387900Y-7614600D01*
X12413300Y-7955600D02*
X12453300Y-7995600D01*
X12453300Y-7955600D02*
X12413300Y-7995600D01*
X12413300Y-8057200D02*
X12453300Y-8097200D01*
X12453300Y-8057200D02*
X12413300Y-8097200D01*
X12661950Y-7625400D02*
X12701950Y-7665400D01*
X12701950Y-7625400D02*
X12661950Y-7665400D01*
D13*
X12671000Y-7188000D02*
G75*
G03*
X12671000Y-7188000I-30000J0D01*
G01*
D11*
X12586000Y-7218000D02*
X12696000Y-7218000D01*
X12696000Y-7218000D02*
G75*
G03*
X12696000Y-7158000I0J30000D01*
G01*
X12696000Y-7158000D02*
X12586000Y-7158000D01*
X12586000Y-7158000D02*
G75*
G03*
X12586000Y-7218000I0J-30000D01*
G01*
D13*
X12671000Y-8052000D02*
G75*
G03*
X12671000Y-8052000I-30000J0D01*
G01*
D11*
X12586000Y-8082000D02*
X12696000Y-8082000D01*
X12696000Y-8082000D02*
G75*
G03*
X12696000Y-8022000I0J30000D01*
G01*
X12696000Y-8022000D02*
X12586000Y-8022000D01*
X12586000Y-8022000D02*
G75*
G03*
X12586000Y-8082000I0J-30000D01*
G01*
D13*
X13089000Y-7188000D02*
G75*
G03*
X13089000Y-7188000I-30000J0D01*
G01*
D11*
X13029000Y-7218000D02*
X13089000Y-7218000D01*
X13089000Y-7218000D02*
G75*
G03*
X13089000Y-7158000I0J30000D01*
G01*
X13089000Y-7158000D02*
X13029000Y-7158000D01*
X13029000Y-7158000D02*
G75*
G03*
X13029000Y-7218000I0J-30000D01*
G01*
D13*
X13089000Y-8052000D02*
G75*
G03*
X13089000Y-8052000I-30000J0D01*
G01*
D11*
X13029000Y-8082000D02*
X13089000Y-8082000D01*
X13089000Y-8082000D02*
G75*
G03*
X13089000Y-8022000I0J30000D01*
G01*
X13089000Y-8022000D02*
X13029000Y-8022000D01*
X13029000Y-8022000D02*
G75*
G03*
X13029000Y-8082000I0J-30000D01*
G01*
X11418619Y-8680476D02*
X11418619Y-8480476D01*
X11418619Y-8480476D02*
X11466238Y-8480476D01*
X11466238Y-8480476D02*
X11494809Y-8490000D01*
X11494809Y-8490000D02*
X11513857Y-8509048D01*
X11513857Y-8509048D02*
X11523381Y-8528095D01*
X11523381Y-8528095D02*
X11532905Y-8566190D01*
X11532905Y-8566190D02*
X11532905Y-8594762D01*
X11532905Y-8594762D02*
X11523381Y-8632857D01*
X11523381Y-8632857D02*
X11513857Y-8651905D01*
X11513857Y-8651905D02*
X11494809Y-8670952D01*
X11494809Y-8670952D02*
X11466238Y-8680476D01*
X11466238Y-8680476D02*
X11418619Y-8680476D01*
X11618619Y-8680476D02*
X11618619Y-8547143D01*
X11618619Y-8585238D02*
X11628143Y-8566190D01*
X11628143Y-8566190D02*
X11637667Y-8556667D01*
X11637667Y-8556667D02*
X11656714Y-8547143D01*
X11656714Y-8547143D02*
X11675762Y-8547143D01*
X11742428Y-8680476D02*
X11742428Y-8547143D01*
X11742428Y-8480476D02*
X11732905Y-8490000D01*
X11732905Y-8490000D02*
X11742428Y-8499524D01*
X11742428Y-8499524D02*
X11751952Y-8490000D01*
X11751952Y-8490000D02*
X11742428Y-8480476D01*
X11742428Y-8480476D02*
X11742428Y-8499524D01*
X11866238Y-8680476D02*
X11847190Y-8670952D01*
X11847190Y-8670952D02*
X11837667Y-8651905D01*
X11837667Y-8651905D02*
X11837667Y-8480476D01*
X11971000Y-8680476D02*
X11951952Y-8670952D01*
X11951952Y-8670952D02*
X11942428Y-8651905D01*
X11942428Y-8651905D02*
X11942428Y-8480476D01*
X12167190Y-8680476D02*
X12167190Y-8480476D01*
X12167190Y-8480476D02*
X12233857Y-8623333D01*
X12233857Y-8623333D02*
X12300524Y-8480476D01*
X12300524Y-8480476D02*
X12300524Y-8680476D01*
X12481476Y-8680476D02*
X12481476Y-8575714D01*
X12481476Y-8575714D02*
X12471952Y-8556667D01*
X12471952Y-8556667D02*
X12452905Y-8547143D01*
X12452905Y-8547143D02*
X12414809Y-8547143D01*
X12414809Y-8547143D02*
X12395762Y-8556667D01*
X12481476Y-8670952D02*
X12462428Y-8680476D01*
X12462428Y-8680476D02*
X12414809Y-8680476D01*
X12414809Y-8680476D02*
X12395762Y-8670952D01*
X12395762Y-8670952D02*
X12386238Y-8651905D01*
X12386238Y-8651905D02*
X12386238Y-8632857D01*
X12386238Y-8632857D02*
X12395762Y-8613810D01*
X12395762Y-8613810D02*
X12414809Y-8604286D01*
X12414809Y-8604286D02*
X12462428Y-8604286D01*
X12462428Y-8604286D02*
X12481476Y-8594762D01*
X12576714Y-8547143D02*
X12576714Y-8747143D01*
X12576714Y-8556667D02*
X12595762Y-8547143D01*
X12595762Y-8547143D02*
X12633857Y-8547143D01*
X12633857Y-8547143D02*
X12652905Y-8556667D01*
X12652905Y-8556667D02*
X12662428Y-8566190D01*
X12662428Y-8566190D02*
X12671952Y-8585238D01*
X12671952Y-8585238D02*
X12671952Y-8642381D01*
X12671952Y-8642381D02*
X12662428Y-8661429D01*
X12662428Y-8661429D02*
X12652905Y-8670952D01*
X12652905Y-8670952D02*
X12633857Y-8680476D01*
X12633857Y-8680476D02*
X12595762Y-8680476D01*
X12595762Y-8680476D02*
X12576714Y-8670952D01*
X12757667Y-8661429D02*
X12767190Y-8670952D01*
X12767190Y-8670952D02*
X12757667Y-8680476D01*
X12757667Y-8680476D02*
X12748143Y-8670952D01*
X12748143Y-8670952D02*
X12757667Y-8661429D01*
X12757667Y-8661429D02*
X12757667Y-8680476D01*
X12757667Y-8556667D02*
X12767190Y-8566190D01*
X12767190Y-8566190D02*
X12757667Y-8575714D01*
X12757667Y-8575714D02*
X12748143Y-8566190D01*
X12748143Y-8566190D02*
X12757667Y-8556667D01*
X12757667Y-8556667D02*
X12757667Y-8575714D01*
D12*
X11131000Y-9007000D02*
X11171000Y-9047000D01*
X11171000Y-9007000D02*
X11131000Y-9047000D01*
D11*
X11456714Y-8900476D02*
X11475762Y-8900476D01*
X11475762Y-8900476D02*
X11494809Y-8910000D01*
X11494809Y-8910000D02*
X11504333Y-8919524D01*
X11504333Y-8919524D02*
X11513857Y-8938571D01*
X11513857Y-8938571D02*
X11523381Y-8976667D01*
X11523381Y-8976667D02*
X11523381Y-9024286D01*
X11523381Y-9024286D02*
X11513857Y-9062381D01*
X11513857Y-9062381D02*
X11504333Y-9081429D01*
X11504333Y-9081429D02*
X11494809Y-9090952D01*
X11494809Y-9090952D02*
X11475762Y-9100476D01*
X11475762Y-9100476D02*
X11456714Y-9100476D01*
X11456714Y-9100476D02*
X11437667Y-9090952D01*
X11437667Y-9090952D02*
X11428143Y-9081429D01*
X11428143Y-9081429D02*
X11418619Y-9062381D01*
X11418619Y-9062381D02*
X11409095Y-9024286D01*
X11409095Y-9024286D02*
X11409095Y-8976667D01*
X11409095Y-8976667D02*
X11418619Y-8938571D01*
X11418619Y-8938571D02*
X11428143Y-8919524D01*
X11428143Y-8919524D02*
X11437667Y-8910000D01*
X11437667Y-8910000D02*
X11456714Y-8900476D01*
X11609095Y-9081429D02*
X11618619Y-9090952D01*
X11618619Y-9090952D02*
X11609095Y-9100476D01*
X11609095Y-9100476D02*
X11599571Y-9090952D01*
X11599571Y-9090952D02*
X11609095Y-9081429D01*
X11609095Y-9081429D02*
X11609095Y-9100476D01*
X11790048Y-8967143D02*
X11790048Y-9100476D01*
X11742428Y-8890952D02*
X11694809Y-9033810D01*
X11694809Y-9033810D02*
X11818619Y-9033810D01*
X11932905Y-8900476D02*
X11951952Y-8900476D01*
X11951952Y-8900476D02*
X11971000Y-8910000D01*
X11971000Y-8910000D02*
X11980524Y-8919524D01*
X11980524Y-8919524D02*
X11990048Y-8938571D01*
X11990048Y-8938571D02*
X11999571Y-8976667D01*
X11999571Y-8976667D02*
X11999571Y-9024286D01*
X11999571Y-9024286D02*
X11990048Y-9062381D01*
X11990048Y-9062381D02*
X11980524Y-9081429D01*
X11980524Y-9081429D02*
X11971000Y-9090952D01*
X11971000Y-9090952D02*
X11951952Y-9100476D01*
X11951952Y-9100476D02*
X11932905Y-9100476D01*
X11932905Y-9100476D02*
X11913857Y-9090952D01*
X11913857Y-9090952D02*
X11904333Y-9081429D01*
X11904333Y-9081429D02*
X11894809Y-9062381D01*
X11894809Y-9062381D02*
X11885286Y-9024286D01*
X11885286Y-9024286D02*
X11885286Y-8976667D01*
X11885286Y-8976667D02*
X11894809Y-8938571D01*
X11894809Y-8938571D02*
X11904333Y-8919524D01*
X11904333Y-8919524D02*
X11913857Y-8910000D01*
X11913857Y-8910000D02*
X11932905Y-8900476D01*
X12123381Y-8900476D02*
X12142429Y-8900476D01*
X12142429Y-8900476D02*
X12161476Y-8910000D01*
X12161476Y-8910000D02*
X12171000Y-8919524D01*
X12171000Y-8919524D02*
X12180524Y-8938571D01*
X12180524Y-8938571D02*
X12190048Y-8976667D01*
X12190048Y-8976667D02*
X12190048Y-9024286D01*
X12190048Y-9024286D02*
X12180524Y-9062381D01*
X12180524Y-9062381D02*
X12171000Y-9081429D01*
X12171000Y-9081429D02*
X12161476Y-9090952D01*
X12161476Y-9090952D02*
X12142429Y-9100476D01*
X12142429Y-9100476D02*
X12123381Y-9100476D01*
X12123381Y-9100476D02*
X12104333Y-9090952D01*
X12104333Y-9090952D02*
X12094809Y-9081429D01*
X12094809Y-9081429D02*
X12085286Y-9062381D01*
X12085286Y-9062381D02*
X12075762Y-9024286D01*
X12075762Y-9024286D02*
X12075762Y-8976667D01*
X12075762Y-8976667D02*
X12085286Y-8938571D01*
X12085286Y-8938571D02*
X12094809Y-8919524D01*
X12094809Y-8919524D02*
X12104333Y-8910000D01*
X12104333Y-8910000D02*
X12123381Y-8900476D01*
X12275762Y-9100476D02*
X12275762Y-8967143D01*
X12275762Y-8986190D02*
X12285286Y-8976667D01*
X12285286Y-8976667D02*
X12304333Y-8967143D01*
X12304333Y-8967143D02*
X12332905Y-8967143D01*
X12332905Y-8967143D02*
X12351952Y-8976667D01*
X12351952Y-8976667D02*
X12361476Y-8995714D01*
X12361476Y-8995714D02*
X12361476Y-9100476D01*
X12361476Y-8995714D02*
X12371000Y-8976667D01*
X12371000Y-8976667D02*
X12390048Y-8967143D01*
X12390048Y-8967143D02*
X12418619Y-8967143D01*
X12418619Y-8967143D02*
X12437667Y-8976667D01*
X12437667Y-8976667D02*
X12447190Y-8995714D01*
X12447190Y-8995714D02*
X12447190Y-9100476D01*
X12542429Y-9100476D02*
X12542429Y-8967143D01*
X12542429Y-8986190D02*
X12551952Y-8976667D01*
X12551952Y-8976667D02*
X12571000Y-8967143D01*
X12571000Y-8967143D02*
X12599571Y-8967143D01*
X12599571Y-8967143D02*
X12618619Y-8976667D01*
X12618619Y-8976667D02*
X12628143Y-8995714D01*
X12628143Y-8995714D02*
X12628143Y-9100476D01*
X12628143Y-8995714D02*
X12637667Y-8976667D01*
X12637667Y-8976667D02*
X12656714Y-8967143D01*
X12656714Y-8967143D02*
X12685286Y-8967143D01*
X12685286Y-8967143D02*
X12704333Y-8976667D01*
X12704333Y-8976667D02*
X12713857Y-8995714D01*
X12713857Y-8995714D02*
X12713857Y-9100476D01*
X13071952Y-8890952D02*
X12900524Y-9148095D01*
X13296714Y-8900476D02*
X13315762Y-8900476D01*
X13315762Y-8900476D02*
X13334810Y-8910000D01*
X13334810Y-8910000D02*
X13344333Y-8919524D01*
X13344333Y-8919524D02*
X13353857Y-8938571D01*
X13353857Y-8938571D02*
X13363381Y-8976667D01*
X13363381Y-8976667D02*
X13363381Y-9024286D01*
X13363381Y-9024286D02*
X13353857Y-9062381D01*
X13353857Y-9062381D02*
X13344333Y-9081429D01*
X13344333Y-9081429D02*
X13334810Y-9090952D01*
X13334810Y-9090952D02*
X13315762Y-9100476D01*
X13315762Y-9100476D02*
X13296714Y-9100476D01*
X13296714Y-9100476D02*
X13277667Y-9090952D01*
X13277667Y-9090952D02*
X13268143Y-9081429D01*
X13268143Y-9081429D02*
X13258619Y-9062381D01*
X13258619Y-9062381D02*
X13249095Y-9024286D01*
X13249095Y-9024286D02*
X13249095Y-8976667D01*
X13249095Y-8976667D02*
X13258619Y-8938571D01*
X13258619Y-8938571D02*
X13268143Y-8919524D01*
X13268143Y-8919524D02*
X13277667Y-8910000D01*
X13277667Y-8910000D02*
X13296714Y-8900476D01*
X13449095Y-9081429D02*
X13458619Y-9090952D01*
X13458619Y-9090952D02*
X13449095Y-9100476D01*
X13449095Y-9100476D02*
X13439571Y-9090952D01*
X13439571Y-9090952D02*
X13449095Y-9081429D01*
X13449095Y-9081429D02*
X13449095Y-9100476D01*
X13582429Y-8900476D02*
X13601476Y-8900476D01*
X13601476Y-8900476D02*
X13620524Y-8910000D01*
X13620524Y-8910000D02*
X13630048Y-8919524D01*
X13630048Y-8919524D02*
X13639571Y-8938571D01*
X13639571Y-8938571D02*
X13649095Y-8976667D01*
X13649095Y-8976667D02*
X13649095Y-9024286D01*
X13649095Y-9024286D02*
X13639571Y-9062381D01*
X13639571Y-9062381D02*
X13630048Y-9081429D01*
X13630048Y-9081429D02*
X13620524Y-9090952D01*
X13620524Y-9090952D02*
X13601476Y-9100476D01*
X13601476Y-9100476D02*
X13582429Y-9100476D01*
X13582429Y-9100476D02*
X13563381Y-9090952D01*
X13563381Y-9090952D02*
X13553857Y-9081429D01*
X13553857Y-9081429D02*
X13544333Y-9062381D01*
X13544333Y-9062381D02*
X13534810Y-9024286D01*
X13534810Y-9024286D02*
X13534810Y-8976667D01*
X13534810Y-8976667D02*
X13544333Y-8938571D01*
X13544333Y-8938571D02*
X13553857Y-8919524D01*
X13553857Y-8919524D02*
X13563381Y-8910000D01*
X13563381Y-8910000D02*
X13582429Y-8900476D01*
X13839571Y-9100476D02*
X13725286Y-9100476D01*
X13782429Y-9100476D02*
X13782429Y-8900476D01*
X13782429Y-8900476D02*
X13763381Y-8929048D01*
X13763381Y-8929048D02*
X13744333Y-8948095D01*
X13744333Y-8948095D02*
X13725286Y-8957619D01*
X14020524Y-8900476D02*
X13925286Y-8900476D01*
X13925286Y-8900476D02*
X13915762Y-8995714D01*
X13915762Y-8995714D02*
X13925286Y-8986190D01*
X13925286Y-8986190D02*
X13944333Y-8976667D01*
X13944333Y-8976667D02*
X13991952Y-8976667D01*
X13991952Y-8976667D02*
X14011000Y-8986190D01*
X14011000Y-8986190D02*
X14020524Y-8995714D01*
X14020524Y-8995714D02*
X14030048Y-9014762D01*
X14030048Y-9014762D02*
X14030048Y-9062381D01*
X14030048Y-9062381D02*
X14020524Y-9081429D01*
X14020524Y-9081429D02*
X14011000Y-9090952D01*
X14011000Y-9090952D02*
X13991952Y-9100476D01*
X13991952Y-9100476D02*
X13944333Y-9100476D01*
X13944333Y-9100476D02*
X13925286Y-9090952D01*
X13925286Y-9090952D02*
X13915762Y-9081429D01*
X14096714Y-8900476D02*
X14230048Y-8900476D01*
X14230048Y-8900476D02*
X14144333Y-9100476D01*
X14296714Y-8900476D02*
X14296714Y-8938571D01*
X14372905Y-8900476D02*
X14372905Y-8938571D01*
X14635762Y-9176667D02*
X14626238Y-9167143D01*
X14626238Y-9167143D02*
X14607191Y-9138571D01*
X14607191Y-9138571D02*
X14597667Y-9119524D01*
X14597667Y-9119524D02*
X14588143Y-9090952D01*
X14588143Y-9090952D02*
X14578619Y-9043333D01*
X14578619Y-9043333D02*
X14578619Y-9005238D01*
X14578619Y-9005238D02*
X14588143Y-8957619D01*
X14588143Y-8957619D02*
X14597667Y-8929048D01*
X14597667Y-8929048D02*
X14607191Y-8910000D01*
X14607191Y-8910000D02*
X14626238Y-8881429D01*
X14626238Y-8881429D02*
X14635762Y-8871905D01*
X14816714Y-9100476D02*
X14702429Y-9100476D01*
X14759571Y-9100476D02*
X14759571Y-8900476D01*
X14759571Y-8900476D02*
X14740524Y-8929048D01*
X14740524Y-8929048D02*
X14721476Y-8948095D01*
X14721476Y-8948095D02*
X14702429Y-8957619D01*
X14988143Y-8900476D02*
X14950048Y-8900476D01*
X14950048Y-8900476D02*
X14931000Y-8910000D01*
X14931000Y-8910000D02*
X14921476Y-8919524D01*
X14921476Y-8919524D02*
X14902429Y-8948095D01*
X14902429Y-8948095D02*
X14892905Y-8986190D01*
X14892905Y-8986190D02*
X14892905Y-9062381D01*
X14892905Y-9062381D02*
X14902429Y-9081429D01*
X14902429Y-9081429D02*
X14911952Y-9090952D01*
X14911952Y-9090952D02*
X14931000Y-9100476D01*
X14931000Y-9100476D02*
X14969095Y-9100476D01*
X14969095Y-9100476D02*
X14988143Y-9090952D01*
X14988143Y-9090952D02*
X14997667Y-9081429D01*
X14997667Y-9081429D02*
X15007191Y-9062381D01*
X15007191Y-9062381D02*
X15007191Y-9014762D01*
X15007191Y-9014762D02*
X14997667Y-8995714D01*
X14997667Y-8995714D02*
X14988143Y-8986190D01*
X14988143Y-8986190D02*
X14969095Y-8976667D01*
X14969095Y-8976667D02*
X14931000Y-8976667D01*
X14931000Y-8976667D02*
X14911952Y-8986190D01*
X14911952Y-8986190D02*
X14902429Y-8995714D01*
X14902429Y-8995714D02*
X14892905Y-9014762D01*
X15212905Y-9100476D02*
X15212905Y-8900476D01*
X15298619Y-9100476D02*
X15298619Y-8995714D01*
X15298619Y-8995714D02*
X15289095Y-8976667D01*
X15289095Y-8976667D02*
X15270048Y-8967143D01*
X15270048Y-8967143D02*
X15241476Y-8967143D01*
X15241476Y-8967143D02*
X15222429Y-8976667D01*
X15222429Y-8976667D02*
X15212905Y-8986190D01*
X15422429Y-9100476D02*
X15403381Y-9090952D01*
X15403381Y-9090952D02*
X15393857Y-9081429D01*
X15393857Y-9081429D02*
X15384333Y-9062381D01*
X15384333Y-9062381D02*
X15384333Y-9005238D01*
X15384333Y-9005238D02*
X15393857Y-8986190D01*
X15393857Y-8986190D02*
X15403381Y-8976667D01*
X15403381Y-8976667D02*
X15422429Y-8967143D01*
X15422429Y-8967143D02*
X15451000Y-8967143D01*
X15451000Y-8967143D02*
X15470048Y-8976667D01*
X15470048Y-8976667D02*
X15479572Y-8986190D01*
X15479572Y-8986190D02*
X15489095Y-9005238D01*
X15489095Y-9005238D02*
X15489095Y-9062381D01*
X15489095Y-9062381D02*
X15479572Y-9081429D01*
X15479572Y-9081429D02*
X15470048Y-9090952D01*
X15470048Y-9090952D02*
X15451000Y-9100476D01*
X15451000Y-9100476D02*
X15422429Y-9100476D01*
X15603381Y-9100476D02*
X15584333Y-9090952D01*
X15584333Y-9090952D02*
X15574810Y-9071905D01*
X15574810Y-9071905D02*
X15574810Y-8900476D01*
X15755762Y-9090952D02*
X15736714Y-9100476D01*
X15736714Y-9100476D02*
X15698619Y-9100476D01*
X15698619Y-9100476D02*
X15679572Y-9090952D01*
X15679572Y-9090952D02*
X15670048Y-9071905D01*
X15670048Y-9071905D02*
X15670048Y-8995714D01*
X15670048Y-8995714D02*
X15679572Y-8976667D01*
X15679572Y-8976667D02*
X15698619Y-8967143D01*
X15698619Y-8967143D02*
X15736714Y-8967143D01*
X15736714Y-8967143D02*
X15755762Y-8976667D01*
X15755762Y-8976667D02*
X15765286Y-8995714D01*
X15765286Y-8995714D02*
X15765286Y-9014762D01*
X15765286Y-9014762D02*
X15670048Y-9033810D01*
X15841476Y-9090952D02*
X15860524Y-9100476D01*
X15860524Y-9100476D02*
X15898619Y-9100476D01*
X15898619Y-9100476D02*
X15917667Y-9090952D01*
X15917667Y-9090952D02*
X15927191Y-9071905D01*
X15927191Y-9071905D02*
X15927191Y-9062381D01*
X15927191Y-9062381D02*
X15917667Y-9043333D01*
X15917667Y-9043333D02*
X15898619Y-9033810D01*
X15898619Y-9033810D02*
X15870048Y-9033810D01*
X15870048Y-9033810D02*
X15851000Y-9024286D01*
X15851000Y-9024286D02*
X15841476Y-9005238D01*
X15841476Y-9005238D02*
X15841476Y-8995714D01*
X15841476Y-8995714D02*
X15851000Y-8976667D01*
X15851000Y-8976667D02*
X15870048Y-8967143D01*
X15870048Y-8967143D02*
X15898619Y-8967143D01*
X15898619Y-8967143D02*
X15917667Y-8976667D01*
X15993857Y-9176667D02*
X16003381Y-9167143D01*
X16003381Y-9167143D02*
X16022429Y-9138571D01*
X16022429Y-9138571D02*
X16031953Y-9119524D01*
X16031953Y-9119524D02*
X16041476Y-9090952D01*
X16041476Y-9090952D02*
X16051000Y-9043333D01*
X16051000Y-9043333D02*
X16051000Y-9005238D01*
X16051000Y-9005238D02*
X16041476Y-8957619D01*
X16041476Y-8957619D02*
X16031953Y-8929048D01*
X16031953Y-8929048D02*
X16022429Y-8910000D01*
X16022429Y-8910000D02*
X16003381Y-8881429D01*
X16003381Y-8881429D02*
X15993857Y-8871905D01*
D13*
X11171000Y-9291000D02*
G75*
G03*
X11171000Y-9291000I-30000J0D01*
G01*
D11*
X11456714Y-9164476D02*
X11475762Y-9164476D01*
X11475762Y-9164476D02*
X11494809Y-9174000D01*
X11494809Y-9174000D02*
X11504333Y-9183524D01*
X11504333Y-9183524D02*
X11513857Y-9202571D01*
X11513857Y-9202571D02*
X11523381Y-9240667D01*
X11523381Y-9240667D02*
X11523381Y-9288286D01*
X11523381Y-9288286D02*
X11513857Y-9326381D01*
X11513857Y-9326381D02*
X11504333Y-9345429D01*
X11504333Y-9345429D02*
X11494809Y-9354952D01*
X11494809Y-9354952D02*
X11475762Y-9364476D01*
X11475762Y-9364476D02*
X11456714Y-9364476D01*
X11456714Y-9364476D02*
X11437667Y-9354952D01*
X11437667Y-9354952D02*
X11428143Y-9345429D01*
X11428143Y-9345429D02*
X11418619Y-9326381D01*
X11418619Y-9326381D02*
X11409095Y-9288286D01*
X11409095Y-9288286D02*
X11409095Y-9240667D01*
X11409095Y-9240667D02*
X11418619Y-9202571D01*
X11418619Y-9202571D02*
X11428143Y-9183524D01*
X11428143Y-9183524D02*
X11437667Y-9174000D01*
X11437667Y-9174000D02*
X11456714Y-9164476D01*
X11609095Y-9345429D02*
X11618619Y-9354952D01*
X11618619Y-9354952D02*
X11609095Y-9364476D01*
X11609095Y-9364476D02*
X11599571Y-9354952D01*
X11599571Y-9354952D02*
X11609095Y-9345429D01*
X11609095Y-9345429D02*
X11609095Y-9364476D01*
X11790048Y-9164476D02*
X11751952Y-9164476D01*
X11751952Y-9164476D02*
X11732905Y-9174000D01*
X11732905Y-9174000D02*
X11723381Y-9183524D01*
X11723381Y-9183524D02*
X11704333Y-9212095D01*
X11704333Y-9212095D02*
X11694809Y-9250190D01*
X11694809Y-9250190D02*
X11694809Y-9326381D01*
X11694809Y-9326381D02*
X11704333Y-9345429D01*
X11704333Y-9345429D02*
X11713857Y-9354952D01*
X11713857Y-9354952D02*
X11732905Y-9364476D01*
X11732905Y-9364476D02*
X11771000Y-9364476D01*
X11771000Y-9364476D02*
X11790048Y-9354952D01*
X11790048Y-9354952D02*
X11799571Y-9345429D01*
X11799571Y-9345429D02*
X11809095Y-9326381D01*
X11809095Y-9326381D02*
X11809095Y-9278762D01*
X11809095Y-9278762D02*
X11799571Y-9259714D01*
X11799571Y-9259714D02*
X11790048Y-9250190D01*
X11790048Y-9250190D02*
X11771000Y-9240667D01*
X11771000Y-9240667D02*
X11732905Y-9240667D01*
X11732905Y-9240667D02*
X11713857Y-9250190D01*
X11713857Y-9250190D02*
X11704333Y-9259714D01*
X11704333Y-9259714D02*
X11694809Y-9278762D01*
X11932905Y-9164476D02*
X11951952Y-9164476D01*
X11951952Y-9164476D02*
X11971000Y-9174000D01*
X11971000Y-9174000D02*
X11980524Y-9183524D01*
X11980524Y-9183524D02*
X11990048Y-9202571D01*
X11990048Y-9202571D02*
X11999571Y-9240667D01*
X11999571Y-9240667D02*
X11999571Y-9288286D01*
X11999571Y-9288286D02*
X11990048Y-9326381D01*
X11990048Y-9326381D02*
X11980524Y-9345429D01*
X11980524Y-9345429D02*
X11971000Y-9354952D01*
X11971000Y-9354952D02*
X11951952Y-9364476D01*
X11951952Y-9364476D02*
X11932905Y-9364476D01*
X11932905Y-9364476D02*
X11913857Y-9354952D01*
X11913857Y-9354952D02*
X11904333Y-9345429D01*
X11904333Y-9345429D02*
X11894809Y-9326381D01*
X11894809Y-9326381D02*
X11885286Y-9288286D01*
X11885286Y-9288286D02*
X11885286Y-9240667D01*
X11885286Y-9240667D02*
X11894809Y-9202571D01*
X11894809Y-9202571D02*
X11904333Y-9183524D01*
X11904333Y-9183524D02*
X11913857Y-9174000D01*
X11913857Y-9174000D02*
X11932905Y-9164476D01*
X12123381Y-9164476D02*
X12142429Y-9164476D01*
X12142429Y-9164476D02*
X12161476Y-9174000D01*
X12161476Y-9174000D02*
X12171000Y-9183524D01*
X12171000Y-9183524D02*
X12180524Y-9202571D01*
X12180524Y-9202571D02*
X12190048Y-9240667D01*
X12190048Y-9240667D02*
X12190048Y-9288286D01*
X12190048Y-9288286D02*
X12180524Y-9326381D01*
X12180524Y-9326381D02*
X12171000Y-9345429D01*
X12171000Y-9345429D02*
X12161476Y-9354952D01*
X12161476Y-9354952D02*
X12142429Y-9364476D01*
X12142429Y-9364476D02*
X12123381Y-9364476D01*
X12123381Y-9364476D02*
X12104333Y-9354952D01*
X12104333Y-9354952D02*
X12094809Y-9345429D01*
X12094809Y-9345429D02*
X12085286Y-9326381D01*
X12085286Y-9326381D02*
X12075762Y-9288286D01*
X12075762Y-9288286D02*
X12075762Y-9240667D01*
X12075762Y-9240667D02*
X12085286Y-9202571D01*
X12085286Y-9202571D02*
X12094809Y-9183524D01*
X12094809Y-9183524D02*
X12104333Y-9174000D01*
X12104333Y-9174000D02*
X12123381Y-9164476D01*
X12275762Y-9364476D02*
X12275762Y-9231143D01*
X12275762Y-9250190D02*
X12285286Y-9240667D01*
X12285286Y-9240667D02*
X12304333Y-9231143D01*
X12304333Y-9231143D02*
X12332905Y-9231143D01*
X12332905Y-9231143D02*
X12351952Y-9240667D01*
X12351952Y-9240667D02*
X12361476Y-9259714D01*
X12361476Y-9259714D02*
X12361476Y-9364476D01*
X12361476Y-9259714D02*
X12371000Y-9240667D01*
X12371000Y-9240667D02*
X12390048Y-9231143D01*
X12390048Y-9231143D02*
X12418619Y-9231143D01*
X12418619Y-9231143D02*
X12437667Y-9240667D01*
X12437667Y-9240667D02*
X12447190Y-9259714D01*
X12447190Y-9259714D02*
X12447190Y-9364476D01*
X12542429Y-9364476D02*
X12542429Y-9231143D01*
X12542429Y-9250190D02*
X12551952Y-9240667D01*
X12551952Y-9240667D02*
X12571000Y-9231143D01*
X12571000Y-9231143D02*
X12599571Y-9231143D01*
X12599571Y-9231143D02*
X12618619Y-9240667D01*
X12618619Y-9240667D02*
X12628143Y-9259714D01*
X12628143Y-9259714D02*
X12628143Y-9364476D01*
X12628143Y-9259714D02*
X12637667Y-9240667D01*
X12637667Y-9240667D02*
X12656714Y-9231143D01*
X12656714Y-9231143D02*
X12685286Y-9231143D01*
X12685286Y-9231143D02*
X12704333Y-9240667D01*
X12704333Y-9240667D02*
X12713857Y-9259714D01*
X12713857Y-9259714D02*
X12713857Y-9364476D01*
X13071952Y-9154952D02*
X12900524Y-9412095D01*
X13296714Y-9164476D02*
X13315762Y-9164476D01*
X13315762Y-9164476D02*
X13334810Y-9174000D01*
X13334810Y-9174000D02*
X13344333Y-9183524D01*
X13344333Y-9183524D02*
X13353857Y-9202571D01*
X13353857Y-9202571D02*
X13363381Y-9240667D01*
X13363381Y-9240667D02*
X13363381Y-9288286D01*
X13363381Y-9288286D02*
X13353857Y-9326381D01*
X13353857Y-9326381D02*
X13344333Y-9345429D01*
X13344333Y-9345429D02*
X13334810Y-9354952D01*
X13334810Y-9354952D02*
X13315762Y-9364476D01*
X13315762Y-9364476D02*
X13296714Y-9364476D01*
X13296714Y-9364476D02*
X13277667Y-9354952D01*
X13277667Y-9354952D02*
X13268143Y-9345429D01*
X13268143Y-9345429D02*
X13258619Y-9326381D01*
X13258619Y-9326381D02*
X13249095Y-9288286D01*
X13249095Y-9288286D02*
X13249095Y-9240667D01*
X13249095Y-9240667D02*
X13258619Y-9202571D01*
X13258619Y-9202571D02*
X13268143Y-9183524D01*
X13268143Y-9183524D02*
X13277667Y-9174000D01*
X13277667Y-9174000D02*
X13296714Y-9164476D01*
X13449095Y-9345429D02*
X13458619Y-9354952D01*
X13458619Y-9354952D02*
X13449095Y-9364476D01*
X13449095Y-9364476D02*
X13439571Y-9354952D01*
X13439571Y-9354952D02*
X13449095Y-9345429D01*
X13449095Y-9345429D02*
X13449095Y-9364476D01*
X13582429Y-9164476D02*
X13601476Y-9164476D01*
X13601476Y-9164476D02*
X13620524Y-9174000D01*
X13620524Y-9174000D02*
X13630048Y-9183524D01*
X13630048Y-9183524D02*
X13639571Y-9202571D01*
X13639571Y-9202571D02*
X13649095Y-9240667D01*
X13649095Y-9240667D02*
X13649095Y-9288286D01*
X13649095Y-9288286D02*
X13639571Y-9326381D01*
X13639571Y-9326381D02*
X13630048Y-9345429D01*
X13630048Y-9345429D02*
X13620524Y-9354952D01*
X13620524Y-9354952D02*
X13601476Y-9364476D01*
X13601476Y-9364476D02*
X13582429Y-9364476D01*
X13582429Y-9364476D02*
X13563381Y-9354952D01*
X13563381Y-9354952D02*
X13553857Y-9345429D01*
X13553857Y-9345429D02*
X13544333Y-9326381D01*
X13544333Y-9326381D02*
X13534810Y-9288286D01*
X13534810Y-9288286D02*
X13534810Y-9240667D01*
X13534810Y-9240667D02*
X13544333Y-9202571D01*
X13544333Y-9202571D02*
X13553857Y-9183524D01*
X13553857Y-9183524D02*
X13563381Y-9174000D01*
X13563381Y-9174000D02*
X13582429Y-9164476D01*
X13725286Y-9183524D02*
X13734810Y-9174000D01*
X13734810Y-9174000D02*
X13753857Y-9164476D01*
X13753857Y-9164476D02*
X13801476Y-9164476D01*
X13801476Y-9164476D02*
X13820524Y-9174000D01*
X13820524Y-9174000D02*
X13830048Y-9183524D01*
X13830048Y-9183524D02*
X13839571Y-9202571D01*
X13839571Y-9202571D02*
X13839571Y-9221619D01*
X13839571Y-9221619D02*
X13830048Y-9250190D01*
X13830048Y-9250190D02*
X13715762Y-9364476D01*
X13715762Y-9364476D02*
X13839571Y-9364476D01*
X13906238Y-9164476D02*
X14030048Y-9164476D01*
X14030048Y-9164476D02*
X13963381Y-9240667D01*
X13963381Y-9240667D02*
X13991952Y-9240667D01*
X13991952Y-9240667D02*
X14011000Y-9250190D01*
X14011000Y-9250190D02*
X14020524Y-9259714D01*
X14020524Y-9259714D02*
X14030048Y-9278762D01*
X14030048Y-9278762D02*
X14030048Y-9326381D01*
X14030048Y-9326381D02*
X14020524Y-9345429D01*
X14020524Y-9345429D02*
X14011000Y-9354952D01*
X14011000Y-9354952D02*
X13991952Y-9364476D01*
X13991952Y-9364476D02*
X13934810Y-9364476D01*
X13934810Y-9364476D02*
X13915762Y-9354952D01*
X13915762Y-9354952D02*
X13906238Y-9345429D01*
X14201476Y-9164476D02*
X14163381Y-9164476D01*
X14163381Y-9164476D02*
X14144333Y-9174000D01*
X14144333Y-9174000D02*
X14134810Y-9183524D01*
X14134810Y-9183524D02*
X14115762Y-9212095D01*
X14115762Y-9212095D02*
X14106238Y-9250190D01*
X14106238Y-9250190D02*
X14106238Y-9326381D01*
X14106238Y-9326381D02*
X14115762Y-9345429D01*
X14115762Y-9345429D02*
X14125286Y-9354952D01*
X14125286Y-9354952D02*
X14144333Y-9364476D01*
X14144333Y-9364476D02*
X14182429Y-9364476D01*
X14182429Y-9364476D02*
X14201476Y-9354952D01*
X14201476Y-9354952D02*
X14211000Y-9345429D01*
X14211000Y-9345429D02*
X14220524Y-9326381D01*
X14220524Y-9326381D02*
X14220524Y-9278762D01*
X14220524Y-9278762D02*
X14211000Y-9259714D01*
X14211000Y-9259714D02*
X14201476Y-9250190D01*
X14201476Y-9250190D02*
X14182429Y-9240667D01*
X14182429Y-9240667D02*
X14144333Y-9240667D01*
X14144333Y-9240667D02*
X14125286Y-9250190D01*
X14125286Y-9250190D02*
X14115762Y-9259714D01*
X14115762Y-9259714D02*
X14106238Y-9278762D01*
X14296714Y-9164476D02*
X14296714Y-9202571D01*
X14372905Y-9164476D02*
X14372905Y-9202571D01*
X14635762Y-9440667D02*
X14626238Y-9431143D01*
X14626238Y-9431143D02*
X14607191Y-9402571D01*
X14607191Y-9402571D02*
X14597667Y-9383524D01*
X14597667Y-9383524D02*
X14588143Y-9354952D01*
X14588143Y-9354952D02*
X14578619Y-9307333D01*
X14578619Y-9307333D02*
X14578619Y-9269238D01*
X14578619Y-9269238D02*
X14588143Y-9221619D01*
X14588143Y-9221619D02*
X14597667Y-9193048D01*
X14597667Y-9193048D02*
X14607191Y-9174000D01*
X14607191Y-9174000D02*
X14626238Y-9145429D01*
X14626238Y-9145429D02*
X14635762Y-9135905D01*
X14750048Y-9164476D02*
X14769095Y-9164476D01*
X14769095Y-9164476D02*
X14788143Y-9174000D01*
X14788143Y-9174000D02*
X14797667Y-9183524D01*
X14797667Y-9183524D02*
X14807191Y-9202571D01*
X14807191Y-9202571D02*
X14816714Y-9240667D01*
X14816714Y-9240667D02*
X14816714Y-9288286D01*
X14816714Y-9288286D02*
X14807191Y-9326381D01*
X14807191Y-9326381D02*
X14797667Y-9345429D01*
X14797667Y-9345429D02*
X14788143Y-9354952D01*
X14788143Y-9354952D02*
X14769095Y-9364476D01*
X14769095Y-9364476D02*
X14750048Y-9364476D01*
X14750048Y-9364476D02*
X14731000Y-9354952D01*
X14731000Y-9354952D02*
X14721476Y-9345429D01*
X14721476Y-9345429D02*
X14711952Y-9326381D01*
X14711952Y-9326381D02*
X14702429Y-9288286D01*
X14702429Y-9288286D02*
X14702429Y-9240667D01*
X14702429Y-9240667D02*
X14711952Y-9202571D01*
X14711952Y-9202571D02*
X14721476Y-9183524D01*
X14721476Y-9183524D02*
X14731000Y-9174000D01*
X14731000Y-9174000D02*
X14750048Y-9164476D01*
X15022429Y-9364476D02*
X15022429Y-9164476D01*
X15108143Y-9364476D02*
X15108143Y-9259714D01*
X15108143Y-9259714D02*
X15098619Y-9240667D01*
X15098619Y-9240667D02*
X15079572Y-9231143D01*
X15079572Y-9231143D02*
X15051000Y-9231143D01*
X15051000Y-9231143D02*
X15031952Y-9240667D01*
X15031952Y-9240667D02*
X15022429Y-9250190D01*
X15231952Y-9364476D02*
X15212905Y-9354952D01*
X15212905Y-9354952D02*
X15203381Y-9345429D01*
X15203381Y-9345429D02*
X15193857Y-9326381D01*
X15193857Y-9326381D02*
X15193857Y-9269238D01*
X15193857Y-9269238D02*
X15203381Y-9250190D01*
X15203381Y-9250190D02*
X15212905Y-9240667D01*
X15212905Y-9240667D02*
X15231952Y-9231143D01*
X15231952Y-9231143D02*
X15260524Y-9231143D01*
X15260524Y-9231143D02*
X15279572Y-9240667D01*
X15279572Y-9240667D02*
X15289095Y-9250190D01*
X15289095Y-9250190D02*
X15298619Y-9269238D01*
X15298619Y-9269238D02*
X15298619Y-9326381D01*
X15298619Y-9326381D02*
X15289095Y-9345429D01*
X15289095Y-9345429D02*
X15279572Y-9354952D01*
X15279572Y-9354952D02*
X15260524Y-9364476D01*
X15260524Y-9364476D02*
X15231952Y-9364476D01*
X15412905Y-9364476D02*
X15393857Y-9354952D01*
X15393857Y-9354952D02*
X15384333Y-9335905D01*
X15384333Y-9335905D02*
X15384333Y-9164476D01*
X15565286Y-9354952D02*
X15546238Y-9364476D01*
X15546238Y-9364476D02*
X15508143Y-9364476D01*
X15508143Y-9364476D02*
X15489095Y-9354952D01*
X15489095Y-9354952D02*
X15479572Y-9335905D01*
X15479572Y-9335905D02*
X15479572Y-9259714D01*
X15479572Y-9259714D02*
X15489095Y-9240667D01*
X15489095Y-9240667D02*
X15508143Y-9231143D01*
X15508143Y-9231143D02*
X15546238Y-9231143D01*
X15546238Y-9231143D02*
X15565286Y-9240667D01*
X15565286Y-9240667D02*
X15574810Y-9259714D01*
X15574810Y-9259714D02*
X15574810Y-9278762D01*
X15574810Y-9278762D02*
X15479572Y-9297810D01*
X15651000Y-9354952D02*
X15670048Y-9364476D01*
X15670048Y-9364476D02*
X15708143Y-9364476D01*
X15708143Y-9364476D02*
X15727191Y-9354952D01*
X15727191Y-9354952D02*
X15736714Y-9335905D01*
X15736714Y-9335905D02*
X15736714Y-9326381D01*
X15736714Y-9326381D02*
X15727191Y-9307333D01*
X15727191Y-9307333D02*
X15708143Y-9297810D01*
X15708143Y-9297810D02*
X15679572Y-9297810D01*
X15679572Y-9297810D02*
X15660524Y-9288286D01*
X15660524Y-9288286D02*
X15651000Y-9269238D01*
X15651000Y-9269238D02*
X15651000Y-9259714D01*
X15651000Y-9259714D02*
X15660524Y-9240667D01*
X15660524Y-9240667D02*
X15679572Y-9231143D01*
X15679572Y-9231143D02*
X15708143Y-9231143D01*
X15708143Y-9231143D02*
X15727191Y-9240667D01*
X15942429Y-9288286D02*
X16094810Y-9288286D01*
X16018619Y-9364476D02*
X16018619Y-9212095D01*
X16395762Y-9231143D02*
X16395762Y-9364476D01*
X16348143Y-9154952D02*
X16300524Y-9297810D01*
X16300524Y-9297810D02*
X16424333Y-9297810D01*
X16611000Y-9354952D02*
X16630048Y-9364476D01*
X16630048Y-9364476D02*
X16668143Y-9364476D01*
X16668143Y-9364476D02*
X16687191Y-9354952D01*
X16687191Y-9354952D02*
X16696714Y-9335905D01*
X16696714Y-9335905D02*
X16696714Y-9326381D01*
X16696714Y-9326381D02*
X16687191Y-9307333D01*
X16687191Y-9307333D02*
X16668143Y-9297810D01*
X16668143Y-9297810D02*
X16639572Y-9297810D01*
X16639572Y-9297810D02*
X16620524Y-9288286D01*
X16620524Y-9288286D02*
X16611000Y-9269238D01*
X16611000Y-9269238D02*
X16611000Y-9259714D01*
X16611000Y-9259714D02*
X16620524Y-9240667D01*
X16620524Y-9240667D02*
X16639572Y-9231143D01*
X16639572Y-9231143D02*
X16668143Y-9231143D01*
X16668143Y-9231143D02*
X16687191Y-9240667D01*
X16811000Y-9364476D02*
X16791953Y-9354952D01*
X16791953Y-9354952D02*
X16782429Y-9335905D01*
X16782429Y-9335905D02*
X16782429Y-9164476D01*
X16915762Y-9364476D02*
X16896715Y-9354952D01*
X16896715Y-9354952D02*
X16887191Y-9345429D01*
X16887191Y-9345429D02*
X16877667Y-9326381D01*
X16877667Y-9326381D02*
X16877667Y-9269238D01*
X16877667Y-9269238D02*
X16887191Y-9250190D01*
X16887191Y-9250190D02*
X16896715Y-9240667D01*
X16896715Y-9240667D02*
X16915762Y-9231143D01*
X16915762Y-9231143D02*
X16944334Y-9231143D01*
X16944334Y-9231143D02*
X16963381Y-9240667D01*
X16963381Y-9240667D02*
X16972905Y-9250190D01*
X16972905Y-9250190D02*
X16982429Y-9269238D01*
X16982429Y-9269238D02*
X16982429Y-9326381D01*
X16982429Y-9326381D02*
X16972905Y-9345429D01*
X16972905Y-9345429D02*
X16963381Y-9354952D01*
X16963381Y-9354952D02*
X16944334Y-9364476D01*
X16944334Y-9364476D02*
X16915762Y-9364476D01*
X17039572Y-9231143D02*
X17115762Y-9231143D01*
X17068143Y-9164476D02*
X17068143Y-9335905D01*
X17068143Y-9335905D02*
X17077667Y-9354952D01*
X17077667Y-9354952D02*
X17096715Y-9364476D01*
X17096715Y-9364476D02*
X17115762Y-9364476D01*
X17172905Y-9354952D02*
X17191953Y-9364476D01*
X17191953Y-9364476D02*
X17230048Y-9364476D01*
X17230048Y-9364476D02*
X17249096Y-9354952D01*
X17249096Y-9354952D02*
X17258619Y-9335905D01*
X17258619Y-9335905D02*
X17258619Y-9326381D01*
X17258619Y-9326381D02*
X17249096Y-9307333D01*
X17249096Y-9307333D02*
X17230048Y-9297810D01*
X17230048Y-9297810D02*
X17201476Y-9297810D01*
X17201476Y-9297810D02*
X17182429Y-9288286D01*
X17182429Y-9288286D02*
X17172905Y-9269238D01*
X17172905Y-9269238D02*
X17172905Y-9259714D01*
X17172905Y-9259714D02*
X17182429Y-9240667D01*
X17182429Y-9240667D02*
X17201476Y-9231143D01*
X17201476Y-9231143D02*
X17230048Y-9231143D01*
X17230048Y-9231143D02*
X17249096Y-9240667D01*
X17325286Y-9440667D02*
X17334810Y-9431143D01*
X17334810Y-9431143D02*
X17353857Y-9402571D01*
X17353857Y-9402571D02*
X17363381Y-9383524D01*
X17363381Y-9383524D02*
X17372905Y-9354952D01*
X17372905Y-9354952D02*
X17382429Y-9307333D01*
X17382429Y-9307333D02*
X17382429Y-9269238D01*
X17382429Y-9269238D02*
X17372905Y-9221619D01*
X17372905Y-9221619D02*
X17363381Y-9193048D01*
X17363381Y-9193048D02*
X17353857Y-9174000D01*
X17353857Y-9174000D02*
X17334810Y-9145429D01*
X17334810Y-9145429D02*
X17325286Y-9135905D01*
M02*
