M48
; DRILL file {KiCad (7.0.0)} date Wed Mar 15 02:57:11 2023
; FORMAT={-:-/ absolute / metric / decimal}
; #@! TF.CreationDate,2023-03-15T02:57:11+08:00
; #@! TF.GenerationSoftware,Kicad,Pcbnew,(7.0.0)
; #@! TF.FileFunction,Plated,1,2,PTH
FMAT,2
METRIC
; #@! TA.AperFunction,Plated,PTH,ViaDrill
T1C0.400
; #@! TA.AperFunction,Plated,PTH,ComponentDrill
T2C0.600
%
G90
G05
T1
X115.57Y-73.66
X115.57Y-74.93
X115.57Y-76.2
X115.57Y-77.47
X115.57Y-78.74
X118.11Y-73.279
X118.872Y-75.565
X118.872Y-76.835
X121.92Y-75.221
X122.301Y-80.772
X123.19Y-73.66
X123.317Y-80.772
X124.079Y-75.946
X124.333Y-79.756
X124.333Y-80.772
X126.82Y-76.454
T2
X125.86Y-71.88G85X126.96Y-71.88
G05
X125.86Y-80.52G85X126.96Y-80.52
G05
X130.29Y-71.88G85X130.89Y-71.88
G05
X130.29Y-80.52G85X130.89Y-80.52
G05
T0
M30
