G04 #@! TF.GenerationSoftware,KiCad,Pcbnew,(7.0.0)*
G04 #@! TF.CreationDate,2023-03-15T13:52:18+08:00*
G04 #@! TF.ProjectId,USB_C_Breakout_GH1.25_4Pin,5553425f-435f-4427-9265-616b6f75745f,rev?*
G04 #@! TF.SameCoordinates,Original*
G04 #@! TF.FileFunction,Legend,Top*
G04 #@! TF.FilePolarity,Positive*
%FSLAX46Y46*%
G04 Gerber Fmt 4.6, Leading zero omitted, Abs format (unit mm)*
G04 Created by KiCad (PCBNEW (7.0.0)) date 2023-03-15 13:52:18*
%MOMM*%
%LPD*%
G01*
G04 APERTURE LIST*
G04 Aperture macros list*
%AMRoundRect*
0 Rectangle with rounded corners*
0 $1 Rounding radius*
0 $2 $3 $4 $5 $6 $7 $8 $9 X,Y pos of 4 corners*
0 Add a 4 corners polygon primitive as box body*
4,1,4,$2,$3,$4,$5,$6,$7,$8,$9,$2,$3,0*
0 Add four circle primitives for the rounded corners*
1,1,$1+$1,$2,$3*
1,1,$1+$1,$4,$5*
1,1,$1+$1,$6,$7*
1,1,$1+$1,$8,$9*
0 Add four rect primitives between the rounded corners*
20,1,$1+$1,$2,$3,$4,$5,0*
20,1,$1+$1,$4,$5,$6,$7,0*
20,1,$1+$1,$6,$7,$8,$9,0*
20,1,$1+$1,$8,$9,$2,$3,0*%
G04 Aperture macros list end*
%ADD10C,0.150000*%
%ADD11C,0.120000*%
%ADD12RoundRect,0.250000X-0.375000X-1.075000X0.375000X-1.075000X0.375000X1.075000X-0.375000X1.075000X0*%
%ADD13RoundRect,0.150000X-0.700000X0.150000X-0.700000X-0.150000X0.700000X-0.150000X0.700000X0.150000X0*%
%ADD14RoundRect,0.250000X-1.100000X0.250000X-1.100000X-0.250000X1.100000X-0.250000X1.100000X0.250000X0*%
%ADD15C,0.650000*%
%ADD16R,1.450000X0.600000*%
%ADD17R,1.450000X0.300000*%
%ADD18O,2.100000X1.000000*%
%ADD19O,1.600000X1.000000*%
%ADD20RoundRect,0.225000X-0.225000X-0.250000X0.225000X-0.250000X0.225000X0.250000X-0.225000X0.250000X0*%
%ADD21RoundRect,0.200000X-0.200000X-0.275000X0.200000X-0.275000X0.200000X0.275000X-0.200000X0.275000X0*%
G04 APERTURE END LIST*
D10*
X128322380Y-80428571D02*
X129036666Y-80428571D01*
X129036666Y-80428571D02*
X129179523Y-80471428D01*
X129179523Y-80471428D02*
X129274761Y-80557142D01*
X129274761Y-80557142D02*
X129322380Y-80685714D01*
X129322380Y-80685714D02*
X129322380Y-80771428D01*
X129322380Y-79571428D02*
X129322380Y-80000000D01*
X129322380Y-80000000D02*
X128322380Y-80000000D01*
X129227142Y-78757143D02*
X129274761Y-78800000D01*
X129274761Y-78800000D02*
X129322380Y-78928572D01*
X129322380Y-78928572D02*
X129322380Y-79014286D01*
X129322380Y-79014286D02*
X129274761Y-79142857D01*
X129274761Y-79142857D02*
X129179523Y-79228572D01*
X129179523Y-79228572D02*
X129084285Y-79271429D01*
X129084285Y-79271429D02*
X128893809Y-79314286D01*
X128893809Y-79314286D02*
X128750952Y-79314286D01*
X128750952Y-79314286D02*
X128560476Y-79271429D01*
X128560476Y-79271429D02*
X128465238Y-79228572D01*
X128465238Y-79228572D02*
X128370000Y-79142857D01*
X128370000Y-79142857D02*
X128322380Y-79014286D01*
X128322380Y-79014286D02*
X128322380Y-78928572D01*
X128322380Y-78928572D02*
X128370000Y-78800000D01*
X128370000Y-78800000D02*
X128417619Y-78757143D01*
X128322380Y-78114286D02*
X129036666Y-78114286D01*
X129036666Y-78114286D02*
X129179523Y-78157143D01*
X129179523Y-78157143D02*
X129274761Y-78242857D01*
X129274761Y-78242857D02*
X129322380Y-78371429D01*
X129322380Y-78371429D02*
X129322380Y-78457143D01*
X129322380Y-77257143D02*
X129322380Y-77685715D01*
X129322380Y-77685715D02*
X128322380Y-77685715D01*
X129227142Y-76442858D02*
X129274761Y-76485715D01*
X129274761Y-76485715D02*
X129322380Y-76614287D01*
X129322380Y-76614287D02*
X129322380Y-76700001D01*
X129322380Y-76700001D02*
X129274761Y-76828572D01*
X129274761Y-76828572D02*
X129179523Y-76914287D01*
X129179523Y-76914287D02*
X129084285Y-76957144D01*
X129084285Y-76957144D02*
X128893809Y-77000001D01*
X128893809Y-77000001D02*
X128750952Y-77000001D01*
X128750952Y-77000001D02*
X128560476Y-76957144D01*
X128560476Y-76957144D02*
X128465238Y-76914287D01*
X128465238Y-76914287D02*
X128370000Y-76828572D01*
X128370000Y-76828572D02*
X128322380Y-76700001D01*
X128322380Y-76700001D02*
X128322380Y-76614287D01*
X128322380Y-76614287D02*
X128370000Y-76485715D01*
X128370000Y-76485715D02*
X128417619Y-76442858D01*
X128322380Y-75800001D02*
X129036666Y-75800001D01*
X129036666Y-75800001D02*
X129179523Y-75842858D01*
X129179523Y-75842858D02*
X129274761Y-75928572D01*
X129274761Y-75928572D02*
X129322380Y-76057144D01*
X129322380Y-76057144D02*
X129322380Y-76142858D01*
X129322380Y-74942858D02*
X129322380Y-75371430D01*
X129322380Y-75371430D02*
X128322380Y-75371430D01*
X129227142Y-74128573D02*
X129274761Y-74171430D01*
X129274761Y-74171430D02*
X129322380Y-74300002D01*
X129322380Y-74300002D02*
X129322380Y-74385716D01*
X129322380Y-74385716D02*
X129274761Y-74514287D01*
X129274761Y-74514287D02*
X129179523Y-74600002D01*
X129179523Y-74600002D02*
X129084285Y-74642859D01*
X129084285Y-74642859D02*
X128893809Y-74685716D01*
X128893809Y-74685716D02*
X128750952Y-74685716D01*
X128750952Y-74685716D02*
X128560476Y-74642859D01*
X128560476Y-74642859D02*
X128465238Y-74600002D01*
X128465238Y-74600002D02*
X128370000Y-74514287D01*
X128370000Y-74514287D02*
X128322380Y-74385716D01*
X128322380Y-74385716D02*
X128322380Y-74300002D01*
X128322380Y-74300002D02*
X128370000Y-74171430D01*
X128370000Y-74171430D02*
X128417619Y-74128573D01*
X128322380Y-73485716D02*
X129036666Y-73485716D01*
X129036666Y-73485716D02*
X129179523Y-73528573D01*
X129179523Y-73528573D02*
X129274761Y-73614287D01*
X129274761Y-73614287D02*
X129322380Y-73742859D01*
X129322380Y-73742859D02*
X129322380Y-73828573D01*
X129322380Y-72628573D02*
X129322380Y-73057145D01*
X129322380Y-73057145D02*
X128322380Y-73057145D01*
X129227142Y-71814288D02*
X129274761Y-71857145D01*
X129274761Y-71857145D02*
X129322380Y-71985717D01*
X129322380Y-71985717D02*
X129322380Y-72071431D01*
X129322380Y-72071431D02*
X129274761Y-72200002D01*
X129274761Y-72200002D02*
X129179523Y-72285717D01*
X129179523Y-72285717D02*
X129084285Y-72328574D01*
X129084285Y-72328574D02*
X128893809Y-72371431D01*
X128893809Y-72371431D02*
X128750952Y-72371431D01*
X128750952Y-72371431D02*
X128560476Y-72328574D01*
X128560476Y-72328574D02*
X128465238Y-72285717D01*
X128465238Y-72285717D02*
X128370000Y-72200002D01*
X128370000Y-72200002D02*
X128322380Y-72071431D01*
X128322380Y-72071431D02*
X128322380Y-71985717D01*
X128322380Y-71985717D02*
X128370000Y-71857145D01*
X128370000Y-71857145D02*
X128417619Y-71814288D01*
G36*
X121376857Y-83584047D02*
G01*
X119266143Y-83584047D01*
X119266143Y-82663062D01*
X119773504Y-82663062D01*
X119780041Y-82682674D01*
X119785862Y-82702497D01*
X119786968Y-82703455D01*
X119826810Y-82822981D01*
X119830633Y-82840555D01*
X119841473Y-82851395D01*
X119850219Y-82863979D01*
X119856764Y-82866686D01*
X119884256Y-82894178D01*
X119887783Y-82901901D01*
X119899525Y-82909447D01*
X119901448Y-82911370D01*
X119908556Y-82915251D01*
X119924835Y-82925713D01*
X119927716Y-82925713D01*
X119930242Y-82927092D01*
X119949523Y-82925713D01*
X120274830Y-82925713D01*
X120291314Y-82928083D01*
X120306466Y-82921163D01*
X120322450Y-82916470D01*
X120326186Y-82912157D01*
X120331378Y-82909787D01*
X120340385Y-82895770D01*
X120351292Y-82883184D01*
X120352103Y-82877537D01*
X120355190Y-82872735D01*
X120355190Y-82856073D01*
X120357560Y-82839589D01*
X120355190Y-82834399D01*
X120355190Y-82649455D01*
X120345947Y-82617977D01*
X120312661Y-82589135D01*
X120269066Y-82582867D01*
X120229002Y-82601163D01*
X120205190Y-82638215D01*
X120205190Y-82775713D01*
X119977923Y-82775713D01*
X119964790Y-82762580D01*
X119926619Y-82648065D01*
X119926619Y-82577169D01*
X119964790Y-82462655D01*
X120038902Y-82388543D01*
X120115888Y-82350049D01*
X120289424Y-82306666D01*
X120413812Y-82306666D01*
X120587345Y-82350049D01*
X120664335Y-82388544D01*
X120738447Y-82462656D01*
X120776619Y-82577170D01*
X120776619Y-82690150D01*
X120732096Y-82779197D01*
X120726286Y-82811485D01*
X120743159Y-82852168D01*
X120779349Y-82877271D01*
X120823365Y-82878823D01*
X120861234Y-82856332D01*
X120916897Y-82745004D01*
X120926619Y-82729878D01*
X120926619Y-82714548D01*
X120929333Y-82699465D01*
X120926619Y-82692921D01*
X120926619Y-82574401D01*
X120929734Y-82562173D01*
X120923194Y-82542553D01*
X120917376Y-82522739D01*
X120916269Y-82521780D01*
X120876427Y-82402251D01*
X120872605Y-82384681D01*
X120861766Y-82373842D01*
X120853019Y-82361256D01*
X120846471Y-82358547D01*
X120768442Y-82280519D01*
X120761999Y-82269670D01*
X120743494Y-82260417D01*
X120725375Y-82250524D01*
X120723915Y-82250628D01*
X120659011Y-82218176D01*
X120653077Y-82211865D01*
X120639699Y-82208520D01*
X120637420Y-82207381D01*
X120629287Y-82205917D01*
X120453210Y-82161898D01*
X120445069Y-82156666D01*
X120432281Y-82156666D01*
X120430777Y-82156290D01*
X120421531Y-82156666D01*
X120292533Y-82156666D01*
X120283364Y-82153564D01*
X120270956Y-82156666D01*
X120269408Y-82156666D01*
X120260538Y-82159270D01*
X120084481Y-82203284D01*
X120075870Y-82202355D01*
X120063539Y-82208520D01*
X120061064Y-82209139D01*
X120053925Y-82213326D01*
X119969345Y-82255616D01*
X119957015Y-82258299D01*
X119942395Y-82272918D01*
X119927270Y-82286988D01*
X119926907Y-82288406D01*
X119849058Y-82366255D01*
X119835051Y-82377533D01*
X119830203Y-82392074D01*
X119822858Y-82405527D01*
X119823363Y-82412594D01*
X119783441Y-82532361D01*
X119776619Y-82542977D01*
X119776619Y-82563657D01*
X119775873Y-82584296D01*
X119776619Y-82585555D01*
X119776619Y-82650835D01*
X119773504Y-82663062D01*
X119266143Y-82663062D01*
X119266143Y-81098632D01*
X119535976Y-81098632D01*
X119553597Y-81138997D01*
X120866606Y-82014335D01*
X120897925Y-82024106D01*
X120940387Y-82012409D01*
X120969784Y-81979612D01*
X120976784Y-81936128D01*
X120959164Y-81895763D01*
X119646154Y-81020424D01*
X119614836Y-81010654D01*
X119572374Y-81022351D01*
X119542977Y-81055148D01*
X119535976Y-81098632D01*
X119266143Y-81098632D01*
X119266143Y-80385647D01*
X119774249Y-80385647D01*
X119792545Y-80425711D01*
X119829597Y-80449523D01*
X120157571Y-80449523D01*
X120157571Y-80766258D01*
X120166814Y-80797736D01*
X120200100Y-80826578D01*
X120243695Y-80832846D01*
X120283759Y-80814550D01*
X120307571Y-80777498D01*
X120307571Y-80449523D01*
X120624305Y-80449523D01*
X120655783Y-80440280D01*
X120684625Y-80406994D01*
X120690893Y-80363399D01*
X120672597Y-80323335D01*
X120635545Y-80299523D01*
X120307571Y-80299523D01*
X120307571Y-79982789D01*
X120298328Y-79951311D01*
X120265042Y-79922469D01*
X120221447Y-79916201D01*
X120181383Y-79934497D01*
X120157571Y-79971549D01*
X120157571Y-80299523D01*
X119840837Y-80299523D01*
X119809359Y-80308766D01*
X119780517Y-80342052D01*
X119774249Y-80385647D01*
X119266143Y-80385647D01*
X119266143Y-78812918D01*
X119535976Y-78812918D01*
X119553597Y-78853283D01*
X120866606Y-79728621D01*
X120897925Y-79738392D01*
X120940387Y-79726695D01*
X120969784Y-79693898D01*
X120976784Y-79650414D01*
X120959164Y-79610049D01*
X119646154Y-78734710D01*
X119614836Y-78724940D01*
X119572374Y-78736637D01*
X119542977Y-78769434D01*
X119535976Y-78812918D01*
X119266143Y-78812918D01*
X119266143Y-78480544D01*
X120157571Y-78480544D01*
X120166814Y-78512022D01*
X120200100Y-78540864D01*
X120243695Y-78547132D01*
X120283759Y-78528836D01*
X120307571Y-78491784D01*
X120307571Y-77697075D01*
X120298328Y-77665597D01*
X120265042Y-77636755D01*
X120221447Y-77630487D01*
X120181383Y-77648783D01*
X120157571Y-77685835D01*
X120157571Y-78480544D01*
X119266143Y-78480544D01*
X119266143Y-76527204D01*
X119535976Y-76527204D01*
X119553597Y-76567569D01*
X120866606Y-77442907D01*
X120897925Y-77452678D01*
X120940387Y-77440981D01*
X120969784Y-77408184D01*
X120976784Y-77364700D01*
X120959164Y-77324335D01*
X119646154Y-76448996D01*
X119614836Y-76439226D01*
X119572374Y-76450923D01*
X119542977Y-76483720D01*
X119535976Y-76527204D01*
X119266143Y-76527204D01*
X119266143Y-75985251D01*
X119773897Y-75985251D01*
X119777334Y-76004252D01*
X119779389Y-76023451D01*
X119781218Y-76025722D01*
X119781737Y-76028591D01*
X119794897Y-76042713D01*
X119807010Y-76057758D01*
X119809776Y-76058680D01*
X119811764Y-76060813D01*
X119830475Y-76065579D01*
X120838130Y-76401465D01*
X120870916Y-76402650D01*
X120908804Y-76380193D01*
X120928536Y-76340817D01*
X120923848Y-76297023D01*
X120896228Y-76262717D01*
X120088789Y-75993570D01*
X120885564Y-75727980D01*
X120912504Y-75709257D01*
X120929340Y-75668558D01*
X120921500Y-75625218D01*
X120891474Y-75592996D01*
X120848793Y-75582123D01*
X119840769Y-75918130D01*
X119832322Y-75917825D01*
X119820289Y-75924956D01*
X119817673Y-75925829D01*
X119811035Y-75930441D01*
X119794434Y-75940282D01*
X119793128Y-75942887D01*
X119790733Y-75944552D01*
X119783347Y-75962405D01*
X119774702Y-75979658D01*
X119775012Y-75982555D01*
X119773897Y-75985251D01*
X119266143Y-75985251D01*
X119266143Y-75197143D01*
X121376857Y-75197143D01*
X121376857Y-83584047D01*
G37*
D11*
X120809936Y-72300000D02*
X122014064Y-72300000D01*
X120809936Y-75020000D02*
X122014064Y-75020000D01*
X117280000Y-71965000D02*
X117280000Y-73765000D01*
X115830000Y-71965000D02*
X117280000Y-71965000D01*
X113010000Y-73235000D02*
X113010000Y-79165000D01*
X117280000Y-73765000D02*
X118270000Y-73765000D01*
X117280000Y-80435000D02*
X117280000Y-78635000D01*
X115830000Y-80435000D02*
X117280000Y-80435000D01*
X127640000Y-80900000D02*
X129640000Y-80900000D01*
X131540000Y-80900000D02*
X133440000Y-80900000D01*
X133440000Y-80900000D02*
X133440000Y-71500000D01*
X127640000Y-71500000D02*
X129640000Y-71500000D01*
X131540000Y-71500000D02*
X133440000Y-71500000D01*
X125589420Y-81786000D02*
X125870580Y-81786000D01*
X125589420Y-82806000D02*
X125870580Y-82806000D01*
X128540742Y-69581500D02*
X129015258Y-69581500D01*
X128540742Y-70626500D02*
X129015258Y-70626500D01*
X128540742Y-81773500D02*
X129015258Y-81773500D01*
X128540742Y-82818500D02*
X129015258Y-82818500D01*
X125492742Y-69581500D02*
X125967258Y-69581500D01*
X125492742Y-70626500D02*
X125967258Y-70626500D01*
%LPC*%
D12*
X120012000Y-73660000D03*
X122812000Y-73660000D03*
D13*
X117420000Y-74325000D03*
X117420000Y-75575000D03*
X117420000Y-76825000D03*
X117420000Y-78075000D03*
D14*
X114220000Y-72475000D03*
X114220000Y-79925000D03*
D15*
X126940000Y-79090000D03*
X126940000Y-73310000D03*
D16*
X125494999Y-79449999D03*
X125494999Y-78649999D03*
D17*
X125494999Y-77449999D03*
X125494999Y-76449999D03*
X125494999Y-75949999D03*
X125494999Y-74949999D03*
D16*
X125494999Y-73749999D03*
X125494999Y-72949999D03*
X125494999Y-72949999D03*
X125494999Y-73749999D03*
D17*
X125494999Y-74449999D03*
X125494999Y-75449999D03*
X125494999Y-76949999D03*
X125494999Y-77949999D03*
D16*
X125494999Y-78649999D03*
X125494999Y-79449999D03*
D18*
X126409999Y-80519999D03*
D19*
X130589999Y-80519999D03*
D18*
X126409999Y-71879999D03*
D19*
X130589999Y-71879999D03*
D20*
X124955000Y-82296000D03*
X126505000Y-82296000D03*
D21*
X127953000Y-70104000D03*
X129603000Y-70104000D03*
X127953000Y-82296000D03*
X129603000Y-82296000D03*
X124905000Y-70104000D03*
X126555000Y-70104000D03*
M02*
