M48
; DRILL file {KiCad (7.0.0)} date Wed Mar 15 13:53:50 2023
; FORMAT={-:-/ absolute / metric / decimal}
; #@! TF.CreationDate,2023-03-15T13:53:50+08:00
; #@! TF.GenerationSoftware,Kicad,Pcbnew,(7.0.0)
; #@! TF.FileFunction,Plated,1,2,PTH
FMAT,2
METRIC
; #@! TA.AperFunction,Plated,PTH,ViaDrill
T1C0.400
; #@! TA.AperFunction,Plated,PTH,ComponentDrill
T2C0.600
%
G90
G05
T1
X115.57Y-73.66
X115.57Y-74.93
X115.57Y-76.2
X115.57Y-77.47
X115.57Y-78.74
X117.856Y-78.994
X117.856Y-79.883
X118.745Y-78.994
X118.872Y-75.565
X118.872Y-76.835
X122.301Y-80.772
X122.555Y-71.374
X123.698Y-71.374
X124.079Y-75.946
X124.333Y-80.772
X124.841Y-71.374
X126.82Y-76.454
T2
X125.86Y-71.88G85X126.96Y-71.88
G05
X125.86Y-80.52G85X126.96Y-80.52
G05
X130.29Y-71.88G85X130.89Y-71.88
G05
X130.29Y-80.52G85X130.89Y-80.52
G05
T0
M30
